<?xml version="1.0" encoding="UTF-8"?>
<svg id="Layer_1" xmlns="http://www.w3.org/2000/svg" viewBox="0 0 400 400">
  <defs>
    <style>
      .cls-1 {
        fill: none;
        stroke: #b3b3b3;
        stroke-miterlimit: 10;
        stroke-width: 25px;
      }

      .cls-2 {
        fill: #b3b3b3;
      }
    </style>
  </defs>
  <path class="cls-1" d="M-228.64,364.85h104.01C-55.84,364.85,0,420.69,0,489.48v104.01h-228.64v-228.64h0Z"/>
  <path class="cls-2" d="M11.85,188.15h96.93v23.69H11.85C5.31,211.85,0,206.54,0,200H0C0,193.46,5.31,188.15,11.85,188.15Z"/>
  <path class="cls-2" d="M157.46,333.76h96.93v23.69h-96.93c-6.54,0-11.85-5.31-11.85-11.85h0c0-6.54,5.31-11.85,11.85-11.85Z" transform="translate(-145.61 545.61) rotate(-90)"/>
  <path class="cls-2" d="M211.85,291.83h0c0-57.26-46.14-103.67-103.07-103.67h0v23.69h0c43.58,0,79.37,35.54,79.37,79.37"/>
</svg>