<?xml version="1.0" encoding="UTF-8"?>
<svg id="Layer_1" data-name="Layer 1" xmlns="http://www.w3.org/2000/svg" viewBox="0 0 2800 800">
  <g>
    <g>
      <path d="m133.51,91.4l-11.9-59.1c-.4-1.8.8-3.5,2.6-3.9l3.5-.7c1.4-.3,2.8.4,3.5,1.6l17.9,30.3h.2l4.8-34.8c.2-1.4,1.3-2.5,2.6-2.8l3.6-.7c1.8-.4,3.6.8,3.9,2.6l11.9,59.1c.4,1.8-.8,3.5-2.6,3.9l-2.9.6c-1.8.4-3.6-.8-3.9-2.6l-7.4-36.6h-.2l-3.4,27.7c-.2,1.4-1.2,2.6-2.7,2.8h0c-1.4.3-2.8-.4-3.6-1.6l-13.6-24.3h-.2l7.4,36.6c.4,1.8-.8,3.5-2.6,3.9l-2.9.6c-1.9.3-3.7-.8-4-2.6h0Z" style="fill: #ae2d28;"/>
      <path d="m227.71,74.9l-7.7-59.8c-.2-1.8,1.1-3.5,2.9-3.7l21.9-2.8c1.8-.2,3.5,1.1,3.7,2.9l.3,2.4c.2,1.8-1.1,3.5-2.9,3.7l-12.3,1.6c-1.8.2-3.1,1.9-2.9,3.7l1.7,12.9c.2,1.8,1.9,3.1,3.7,2.9l9.9-1.3c1.8-.2,3.5,1.1,3.7,2.9l.3,2.4c.2,1.8-1.1,3.5-2.9,3.7l-9.9,1.3c-1.8.2-3.1,1.9-2.9,3.7l1.7,12.9c.2,1.8,1.9,3.1,3.7,2.9l12.3-1.6c1.8-.2,3.5,1.1,3.7,2.9l.4,2.9c.2,1.8-1.1,3.5-2.9,3.7l-21.9,2.8c-1.7.1-3.4-1.1-3.6-3h0Z" style="fill: #ae2d28;"/>
      <path d="m305.41,66.7l-3.7-60.1c-.1-1.8,1.3-3.4,3.1-3.5l10.9-.7c5.5-.3,9.8.9,12.9,3.7,3,2.8,4.8,7,5.1,12.5l1.9,31.2c.4,6.2-.9,11-3.7,14.1-2.9,3.2-7.2,4.9-12.9,5.3l-10.1.6c-1.8.1-3.4-1.2-3.5-3.1h0Zm6.4-51.7l2.6,42.1c.1,1.8,1.7,3.2,3.5,3.1l1.1-.1c2.7-.2,4.6-1,5.6-2.4,1.1-1.4,1.5-3.6,1.3-6.4l-2-32.1c-.2-2.6-.8-4.6-2-6s-3.2-2-6-1.8l-1.1.1c-1.7.1-3.1,1.7-3,3.5h0Z" style="fill: #ae2d28;"/>
      <path d="m389.11,63.5l-.2-60.2c0-1.8,1.5-3.3,3.3-3.3h3c1.8,0,3.3,1.5,3.3,3.3l.2,60.2c0,1.8-1.5,3.3-3.3,3.3h-3c-1.8-.1-3.3-1.5-3.3-3.3Z" style="fill: #ae2d28;"/>
      <path d="m451.31,64.4l3.7-60.1c.1-1.8,1.7-3.2,3.5-3.1l3.6.2c1.4.1,2.6,1.1,3,2.4l9.6,33.8h.2l13.5-32.4c.5-1.3,1.9-2.1,3.3-2l3.7.2c1.8.1,3.2,1.7,3.1,3.5l-3.7,60.1c-.1,1.8-1.7,3.2-3.5,3.1l-3-.2c-1.8-.1-3.2-1.7-3.1-3.5l2.3-37.3h-.2l-10.4,25.9c-.5,1.3-1.9,2.2-3.3,2.1h0c-1.4-.1-2.7-1.1-3-2.5l-7.1-26.9h-.2l-2.3,37.3c-.1,1.8-1.7,3.2-3.5,3.1l-3-.2c-1.9-.1-3.3-1.7-3.2-3.5h0Z" style="fill: #ae2d28;"/>
      <path d="m582.71,12.9c1.8.2,3.1,1.9,2.9,3.7l-6.5,48.1c-.3,2.2-1,4.1-2,5.8s-2.4,3.2-4,4.4-3.4,2.1-5.4,2.7c-2,.6-4,.7-6.2.4s-4.1-1-5.8-2c-1.7-1.1-3.2-2.4-4.5-4-1.2-1.6-2.1-3.4-2.7-5.3-.6-1.9-.7-4-.4-6.2l6.5-48.1c.2-1.8,1.9-3.1,3.7-2.8l3,.4c1.8.2,3.1,1.9,2.9,3.7l-6.4,47.2c-.3,2.4,0,4.2,1,5.4,1,1.3,2.3,2,4,2.2s3.2-.1,4.4-1.1c1.3-1,2.1-2.6,2.4-5l6.4-47.2c.2-1.8,1.9-3.1,3.7-2.8l3,.5h0Z" style="fill: #ae2d28;"/>
      <path d="m628.61,84.9l12.1-59c.4-1.8,2.1-2.9,3.9-2.6l3.5.7c1.4.3,2.4,1.4,2.6,2.8l5.8,40.1h.2l7.4-36.2c.4-1.8,2.1-2.9,3.9-2.6l2.9.6c1.8.4,3,2.1,2.6,3.9l-12.1,59c-.4,1.8-2.1,2.9-3.9,2.6l-3.3-.7c-1.4-.3-2.4-1.4-2.6-2.8l-6-40h-.2l-7.4,36.1c-.4,1.8-2.1,2.9-3.9,2.6l-2.9-.6c-1.7-.4-2.9-2.1-2.6-3.9h0Z" style="fill: #ae2d28;"/>
    </g>
    <path d="m237.71,799.2c25.4-41,59.7-77,100.6-103.1,13.6-8.8,28.2-16.4,43.3-22.3,19.5-7.6,32-10.6,61.4-19.2,15.9-4.6,39.1-12.4,67.8-21.4,3.7-.7,8.2-2.5,8.4-1.9.6,2-37.4,16.1-74.3,27.9-30.6,9.7-62.2,17.1-90.5,32.8-6.5,3.5-14.4,8.1-20.6,12.2-17.8,11.5-41.33,34.25-47.13,40.93-13.05,15.01-23.18,27.44-31.55,43.28-3.42,6.47-10.1,10.56-17.41,10.79h0Z" style="fill: #ae2d28;"/>
    <path d="m760.81,110.5c4.2,28.8-11,54.9-11,54.9,0,0-22.1-20.7-26.3-49.5-3-20.8,4-40.1,8.2-49.3,1.3-2.8,5.1-3.4,7.1-1,6.7,7.6,19,24.1,22,44.9Z" style="fill: #ae2d28;"/>
    <path d="m738.51,187.8c12.1,26.6,4.6,55.8,4.6,55.8,0,0-27-13.8-39-40.4-8.7-19.1-7.3-39.6-5.8-49.6.5-3.1,4-4.6,6.6-2.9,8.5,5.4,25,18,33.6,37.1Z" style="fill: #ae2d28;"/>
    <path d="m758.11,186.6c9.2-18.8,25.9-30.9,34.6-36.1,2.7-1.6,6.2,0,6.6,3.2,1.2,10,2,30.5-7.2,49.4-12.8,26.2-40.2,39.2-40.2,39.2,0,0-6.6-29.5,6.2-55.7Z" style="fill: #ae2d28;"/>
    <path d="m732.71,278.1c7.8,28.1-4.1,55.8-4.1,55.8,0,0-24.5-17.8-32.3-45.9-5.6-20.2-1-40.3,2-49.9.9-3,4.6-4,7-1.9,7.5,6.8,21.8,21.7,27.4,41.9Z" style="fill: #ae2d28;"/>
    <path d="m752.21,279.9c12-17.2,30.4-26.5,39.8-30.4,2.9-1.2,6.1,1,6,4.1-.4,10.1-2.8,30.5-14.8,47.7-16.7,23.9-45.8,32.6-45.8,32.6,0,0-1.9-30.1,14.8-54Z" style="fill: #ae2d28;"/>
    <path d="m717.51,379.4c5.8,28.6-8.1,55.4-8.1,55.4,0,0-23.2-19.5-28.9-48-4.1-20.6,1.9-40.2,5.6-49.6,1.1-2.9,4.9-3.6,7.1-1.4,7,7.1,20.1,23,24.3,43.6Z" style="fill: #ae2d28;"/>
    <path d="m736.81,382.5c13.2-16.3,32.3-24.3,41.9-27.5,3-1,6,1.4,5.7,4.5-1.1,10-5,30.2-18.2,46.5-18.4,22.7-48,29.3-48,29.3,0,0,.2-30.1,18.6-52.8Z" style="fill: #ae2d28;"/>
    <path d="m686.11,461.9c-3,29-24.2,50.5-24.2,50.5,0,0-16.3-25.4-13.3-54.4,2.2-20.9,13.8-37.9,20.1-45.8,1.9-2.4,5.8-2,7.2.7,4.5,9.2,12.4,28.2,10.2,49Z" style="fill: #ae2d28;"/>
    <path d="m702.91,472.9c17.5-11.7,38-13.8,48.2-14,3.2-.1,5.3,3.1,4.1,6-4.1,9.3-13.7,27.4-31.2,39.1-24.3,16.3-54.6,13.9-54.6,13.9,0,0,9.2-28.7,33.5-45Z" style="fill: #ae2d28;"/>
    <path d="m633.41,534.3c-9.2,27.7-34.5,44.3-34.5,44.3,0,0-10.5-28.3-1.3-55.9,6.6-19.9,21.6-34.1,29.5-40.5,2.4-2,6.1-.8,6.9,2.2,2.4,9.8,6,30-.6,49.9Z" style="fill: #ae2d28;"/>
    <path d="m648.71,546.6c19.6-7.7,40.1-5.4,50.1-3.5,3.1.6,4.5,4.2,2.7,6.7-6,8.2-19.3,23.9-38.9,31.6-27.3,10.7-56.3,2-56.3,2,0,0,15.1-26.1,42.4-36.8Z" style="fill: #ae2d28;"/>
    <path d="m564.61,595.9c-17.6,23.3-46.9,31-46.9,31,0,0-.9-30.1,16.7-53.4,12.7-16.8,31.4-25.5,40.9-29,2.9-1.1,6,1.2,5.8,4.3-.7,10-3.8,30.3-16.5,47.1Z" style="fill: #ae2d28;"/>
    <path d="m575.61,612.6c21.1-1.1,39.8,7.6,48.6,12.6,2.8,1.6,3,5.4.4,7.2-8.3,5.9-26,16.5-47,17.6-29.3,1.5-54-15.9-54-15.9,0,0,22.7-19.9,52-21.5Z" style="fill: #ae2d28;"/>
    <path d="m562.31,799.2h0c-7.32-.22-13.99-4.32-17.41-10.79-8.37-15.84-18.5-28.27-31.55-43.28-5.8-6.68-29.33-29.43-47.13-40.93-6.2-4.1-14.1-8.7-20.6-12.2-28.3-15.7-59.9-23.1-90.5-32.8-36.9-11.8-74.9-25.9-74.3-27.9.2-.6,4.7,1.2,8.4,1.9,28.7,9,51.9,16.8,67.8,21.4,29.4,8.6,41.9,11.6,61.4,19.2,15.1,5.9,29.7,13.5,43.3,22.3,40.9,26.1,75.2,62.1,100.6,103.1h0Z" style="fill: #ae2d28;"/>
    <path d="m39.21,110.5c-4.2,28.8,11,54.9,11,54.9,0,0,22.1-20.7,26.3-49.5,3-20.8-4-40.1-8.2-49.3-1.3-2.8-5.1-3.4-7.1-1-6.7,7.6-19,24.1-22,44.9Z" style="fill: #ae2d28;"/>
    <path d="m61.51,187.8c-12.1,26.6-4.6,55.8-4.6,55.8,0,0,27-13.8,39-40.4,8.7-19.1,7.3-39.6,5.8-49.6-.5-3.1-4-4.6-6.6-2.9-8.5,5.4-25,18-33.6,37.1Z" style="fill: #ae2d28;"/>
    <path d="m41.91,186.6c-9.2-18.8-25.9-30.9-34.6-36.1-2.7-1.6-6.2,0-6.6,3.2-1.2,10-2,30.5,7.2,49.4,12.8,26.2,40.2,39.2,40.2,39.2,0,0,6.6-29.5-6.2-55.7Z" style="fill: #ae2d28;"/>
    <path d="m67.31,278.1c-7.8,28.1,4.1,55.8,4.1,55.8,0,0,24.5-17.8,32.3-45.9,5.6-20.2,1-40.3-2-49.9-.9-3-4.6-4-7-1.9-7.5,6.8-21.8,21.7-27.4,41.9Z" style="fill: #ae2d28;"/>
    <path d="m47.81,279.9c-12-17.2-30.4-26.5-39.8-30.4-2.9-1.2-6.1,1-6,4.1.4,10.1,2.8,30.5,14.8,47.7,16.7,23.9,45.8,32.6,45.8,32.6,0,0,1.9-30.1-14.8-54Z" style="fill: #ae2d28;"/>
    <path d="m82.51,379.4c-5.8,28.6,8.1,55.4,8.1,55.4,0,0,23.2-19.5,28.9-48,4.1-20.6-1.9-40.2-5.6-49.6-1.1-2.9-4.9-3.6-7.1-1.4-7,7.1-20.1,23-24.3,43.6Z" style="fill: #ae2d28;"/>
    <path d="m63.21,382.5c-13.2-16.3-32.3-24.3-41.9-27.5-3-1-6,1.4-5.7,4.5,1.1,10,5,30.2,18.2,46.5,18.4,22.7,48,29.3,48,29.3,0,0-.2-30.1-18.6-52.8Z" style="fill: #ae2d28;"/>
    <path d="m113.91,461.9c3,29,24.2,50.5,24.2,50.5,0,0,16.3-25.4,13.3-54.4-2.2-20.9-13.8-37.9-20.1-45.8-1.9-2.4-5.8-2-7.2.7-4.5,9.2-12.4,28.2-10.2,49Z" style="fill: #ae2d28;"/>
    <path d="m97.11,472.9c-17.5-11.7-38-13.8-48.2-14-3.2-.1-5.3,3.1-4.1,6,4.1,9.3,13.7,27.4,31.2,39.1,24.3,16.3,54.6,13.9,54.6,13.9,0,0-9.2-28.7-33.5-45Z" style="fill: #ae2d28;"/>
    <path d="m166.61,534.3c9.2,27.7,34.5,44.3,34.5,44.3,0,0,10.5-28.3,1.3-55.9-6.6-19.9-21.6-34.1-29.5-40.5-2.4-2-6.1-.8-6.9,2.2-2.4,9.8-6,30,.6,49.9Z" style="fill: #ae2d28;"/>
    <path d="m151.31,546.6c-19.6-7.7-40.1-5.4-50.1-3.5-3.1.6-4.5,4.2-2.7,6.7,6,8.2,19.3,23.9,38.9,31.6,27.3,10.7,56.3,2,56.3,2,0,0-15.1-26.1-42.4-36.8Z" style="fill: #ae2d28;"/>
    <path d="m235.41,595.9c17.6,23.3,46.9,31,46.9,31,0,0,.9-30.1-16.7-53.4-12.7-16.8-31.4-25.5-40.9-29-2.9-1.1-6,1.2-5.8,4.3.7,10,3.8,30.3,16.5,47.1Z" style="fill: #ae2d28;"/>
    <path d="m224.41,612.6c-21.1-1.1-39.8,7.6-48.6,12.6-2.8,1.6-3,5.4-.4,7.2,8.3,5.9,26,16.5,47,17.6,29.3,1.5,54-15.9,54-15.9,0,0-22.7-19.9-52-21.5Z" style="fill: #ae2d28;"/>
    <g>
      <path d="m324.11,619l.2-1.7c0-.4.2-.9.4-1.2l11.1-16.6c.6-.9.9-1.6,1.1-2.3.1-.7.3-1.5.4-2.5,0-.5.1-.9.1-1.4s0-1-.2-1.4c-.1-.4-.4-.7-.7-1-.3-.3-.8-.5-1.5-.5-.8-.1-1.5.1-2,.5s-.8,1-.9,1.9v.4c-.1,1.5-1.5,2.5-2.9,2.4h0c-1.5-.1-2.6-1.5-2.4-2.9v-.3c.1-1.1.4-2.1.9-3.1.5-.9,1.2-1.7,2-2.4s1.7-1.2,2.7-1.5,2.1-.5,3.2-.3c1.4.1,2.6.5,3.5,1.1s1.7,1.4,2.3,2.3c.5.9.9,2,1.1,3.1s.2,2.3.1,3.6c-.1.9-.2,1.7-.3,2.3-.1.6-.2,1.2-.4,1.7-.2.5-.4,1.1-.7,1.6-.3.5-.7,1.2-1.2,1.9l-7,10.6c-1.1,1.7,0,3.9,2,4.1l2.6.3c1.5.1,2.6,1.5,2.4,2.9h0c-.1,1.5-1.5,2.5-2.9,2.4l-10.6-1c-1.4-.3-2.5-1.6-2.4-3h0Z" style="fill: #ae2d28;"/>
      <path d="m370.41,595.5c0-1.3.3-2.4.8-3.3.5-1,1.1-1.8,1.9-2.5s1.6-1.2,2.6-1.5,2-.5,3.1-.4c1.1,0,2.1.3,3,.7,1,.4,1.8,1,2.5,1.7s1.3,1.6,1.7,2.6c.4,1,.6,2.1.5,3.4l-.7,21.9c0,1.3-.3,2.4-.8,3.3-.5,1-1.1,1.8-1.9,2.5s-1.6,1.2-2.6,1.5-2,.5-3.1.4c-1.1,0-2.1-.3-3-.7-1-.4-1.8-1-2.5-1.7s-1.3-1.6-1.7-2.6c-.4-1-.6-2.1-.5-3.4l.7-21.9h0Zm4.6,22.1c0,.8.2,1.4.7,1.9s1.1.8,1.9.8,1.4-.2,1.9-.7.8-1.1.8-1.9l.7-21.8c0-.8-.2-1.4-.7-1.9s-1.1-.8-1.9-.8-1.4.2-1.9.7-.8,1.1-.8,1.9l-.7,21.8Z" style="fill: #ae2d28;"/>
      <path d="m414.11,596.1c0-1.3.1-2.4.5-3.4s1-1.8,1.7-2.6c.7-.7,1.5-1.3,2.5-1.7s2-.6,3-.7,2.1.1,3.1.4,1.9.8,2.6,1.5c.8.7,1.4,1.5,1.9,2.5s.7,2.1.8,3.3l.7,21.9c0,1.3-.1,2.4-.5,3.4s-1,1.9-1.7,2.6c-.7.7-1.5,1.3-2.5,1.7s-2,.6-3,.7-2.1-.1-3.1-.4c-1-.3-1.9-.8-2.6-1.5-.8-.7-1.4-1.5-1.9-2.5s-.7-2.1-.8-3.3l-.7-21.9h0Zm6.1,21.7c0,.8.3,1.4.8,1.9s1.2.7,1.9.7c.8,0,1.4-.3,1.9-.8s.7-1.2.7-1.9l-.7-21.9c0-.8-.3-1.4-.8-1.9s-1.2-.7-1.9-.7c-.8,0-1.4.3-1.9.8s-.7,1.2-.7,1.9l.7,21.9Z" style="fill: #ae2d28;"/>
      <path d="m467.11,585.1c1.9-.2,3.4,1.6,2.9,3.4l-3.5,12.4.1.1c.2-.2.4-.3.8-.4.4-.1.8-.2,1.4-.3.9-.1,1.8,0,2.7.4.9.4,1.5.9,2.1,1.5.3.4.5.7.7,1.1.2.3.3.8.5,1.4v.2c.1.6.3,1.4.4,2.3.1,1,.3,2.2.4,3.6.1,1.2.2,2.2.2,3,0,.7.1,1.3,0,1.9v.2c0,.5-.1,1-.2,1.3-.1.4-.3.8-.5,1.3-.6,1.2-1.4,2.2-2.5,2.9s-2.4,1.2-3.9,1.3-2.8,0-4-.6c-1.2-.5-2.2-1.3-3-2.4-.3-.4-.6-.8-.8-1.1-.2-.4-.4-.8-.5-1.4-.2-.5-.3-1.2-.4-1.9-.1-.8-.2-1.8-.4-3-.1-1.1-.2-2.1-.2-2.8v-2c0-.5.1-1,.2-1.5s.2-.9.3-1.4l4.7-17.6c.3-1.1,1.2-1.9,2.3-2l.2.1h0Zm2.8,22.5c-.1-.8-.4-1.4-1-1.9-.6-.4-1.2-.6-1.9-.6-.7.1-1.3.4-1.8.9s-.7,1.2-.6,2l.7,6.9c.1.8.4,1.4,1,1.9.6.4,1.2.6,1.9.6.7-.1,1.3-.4,1.8-.9s.7-1.2.6-2l-.7-6.9Z" style="fill: #ae2d28;"/>
    </g>
    <g>
      <path d="m348.41,399.6c0-16.8-.1-33.7.1-50.5,0-4.3-.9-6.5-6-6.8-9.7-.5-16.7-7.2-18.7-16.7-.9-4.4-.9-8.8-.8-13.1.3-17.2-.7-34.4.7-51.6,2-23.2,20.1-44.5,42.9-50.3,3.5-.9,6.7-.8,10.1.8,14.1,6.4,28.3,6.6,42.4-.2,3.2-1.6,6.2-1.5,9.5-.6,25.1,6.6,43.1,29,43.7,55.1.4,18.2.2,36.4,0,54.5-.1,13.1-7.5,21.1-20.8,22.2-5.2.4-4.6,3.6-4.6,6.8v97c0,1.9.1,3.8-.1,5.7-.8,12.4-9,20.5-21.6,21-12.4.6-21.8-6.9-23.1-19.3-.8-7.2-.4-14.5-.4-21.8v-49.4c0-1.7,0-3.4-.2-5.2-.2-2.1-1.2-3.7-3.6-3.7s-3.6,1.4-3.9,3.5c-.3,1.9-.3,3.8-.3,5.7v66.6c0,14.7-8.4,23.4-22.4,23.5-13.6.1-22.6-9.1-22.7-23.5-.3-16.3-.2-33-.2-49.7h0Z" style="fill: #ae2d28;"/>
      <path d="m328.81,229.1c-2.1,3.9-3.8,6.7-5.2,9.5-4.2,8.5-6.6,17.5-6.6,27.1,0,18.4-.1,36.7,0,55.1.1,13.7,7.3,23.2,20.7,26.9,3.4.9,4.7,2.7,4.7,6-.1,29.7,0,59.3,0,89,0,2.9-1.1,5-3.8,6.5-12.5,6.9-27.7-1.6-27.9-15.7-.3-20.9-.4-41.7-.6-62.6,0-2.3.3-5.1-2.9-5.2-3.3-.1-3.1,2.9-3.1,5.1-.3,20.5-.5,40.9-.7,61.4,0,7.5-2.6,13.5-9.7,16.9-7.4,3.5-14.6,3.1-21.3-1.8-5.1-3.7-6.8-9-6.8-15.1,0-28.3-.1-56.7.1-85,0-5.1-.2-8.5-6.9-8.8-7.2-.4-12.8-6.8-14.2-14s-.7-14.5-.6-21.8c.1-11.3-.7-22.6.7-33.8,2.4-19,16.6-35.7,35.1-40.9,2.3-.6,4.4-1,6.7.2,12.7,7.1,25.7,7.2,38.9,1.4.6,0,1.4,0,3.4-.4h0Z" style="fill: #f8c400;"/>
      <path d="m467.11,229.5c1.5-.8,2.6.2,3.8.7,11.8,5.1,23.7,5,35.2-.7,4.5-2.3,8.4-2,12.6-.2,20.1,8.5,30.9,23.7,32,45.2.7,15.1.3,30.2.1,45.4-.1,11.4-6,18-17.3,19.1-4.7.5-4.5,3.1-4.5,6.3v87.9c0,9.3-4.9,15.6-13.4,17.7-9.2,2.3-18.1-1.4-22.4-9-1.6-3-1.9-6.2-1.9-9.4v-61.5c-.1-2.3-.2-5.1-3.3-5.2-3.3-.1-3.3,2.7-3.3,5-.1,5.9-.1,11.9-.1,17.8,0,14.7.2,29.5-.1,44.2-.3,14.3-13.7,22.6-27,17.1-3.4-1.4-5.3-3.5-5.3-7.3v-89c0-3.4,1.4-5,4.8-5.9,13.7-3.7,20.5-12.7,20.6-26.8.1-17-.3-34.1.1-51.1.3-13.3-2.8-25.4-9.6-36.7-.5-.8-.9-1.7-1.3-2.5,0-.3.2-.7.3-1.1h0Z" style="fill: #f8c400;"/>
      <path d="m189.31,361.9c0-11.9-.2-23.7.1-35.6.1-4.6-1.1-6.8-5.9-7.8-7.8-1.6-11.8-7.1-11.8-14.9,0-13.2,0-26.4.2-39.6.2-15.9,10.8-30.6,25.7-36.3,3.5-1.3,6.4-1.4,9.8.5,11.2,6.1,22.5,5.6,33.7-.3,4-2.1,12.5-.3,15.3,3.1,1.4,1.7.5,2.8-.7,3.9-14.1,13.5-18.5,30.2-17.6,49.1.6,12.2.2,24.5.1,36.7-.1,11,5.1,18.7,15.3,22.7,3.8,1.5,4.8,3.6,4.7,7.4-.1,15.9,0,31.8-.1,47.6-.1,9.9-6.1,16.1-15.5,16.3-9.7.2-16.2-6.1-16.3-16.2-.1-16.5,0-32.9,0-49.4,0-1.7,0-3.4-.2-5.2-.1-1.2-.7-2.2-2-2.4-1.6-.2-2.6.8-2.8,2.2-.3,1.7-.3,3.4-.3,5.1v48.8c0,10.5-5.8,16.8-15.4,16.9-9.9.2-16.2-6.1-16.3-16.7-.1-11.8,0-23.8,0-35.9h0Z" style="fill: #ae2d28;"/>
      <path d="m568.21,373.6c0,8.4.1,16.8,0,25.3-.1,9.8-6.3,15.9-15.8,15.9s-15.8-6.2-15.8-16c-.1-16.1,0-32.1-.1-48.2,0-3.5.9-5.5,4.5-6.9,9.9-3.8,15.5-11.4,15.7-22,.4-17.2,1.1-34.4-.3-51.6-1.2-13.4-6.8-24.6-16.3-33.9-3.4-3.3-2.9-5.1,1.2-7.1,4.9-2.3,9.2-3.2,14.6-.3,10.3,5.5,21.2,5.1,31.6-.5,3.6-2,6.7-2,10.3-.4,16,7.4,24.8,19.8,25.6,37.2.6,12.6.2,25.3.1,37.9-.1,8.3-4.3,13.8-12.6,15.6-4.7,1-5.6,3.2-5.6,7.5.2,23.7.1,47.4.1,71.2,0,11.3-5.7,17.5-15.9,17.5s-15.8-6.5-15.9-17.8c0-16.6,0-33.3-.1-49.9,0-2.1.9-5.4-2.6-5.3-3.2.1-2.6,3.3-2.6,5.4-.1,8.8-.1,17.6-.1,26.4h0Z" style="fill: #ae2d28;"/>
      <path d="m438.71,169.4c0,22.9-18.5,41.1-41.6,41-22.8-.1-41.3-18.7-41.2-41.6.1-22.3,18.8-41,41.2-41.2,23-.3,41.6,18.5,41.6,41.8h0Z" style="fill: #ae2d28;"/>
      <path d="m453.11,192.8c0-19,15.5-34.4,34.5-34.5,19.2,0,35.1,15.5,35.3,34.5.1,18.9-15.9,34.7-35,34.8-19.3.1-34.8-15.5-34.8-34.8h0Z" style="fill: #f8c400;"/>
      <path d="m341.51,193.1c0,19-15.4,34.4-34.3,34.5-19.2.1-35.2-15.6-35.2-34.6s15.7-34.8,35-34.7c19.4,0,34.6,15.3,34.5,34.8h0Z" style="fill: #f8c400;"/>
      <path d="m224.41,168.6c15.8.1,28.8,13,28.8,28.4,0,16.4-13.4,29.7-29.7,29.5-15.8-.2-28.8-13.3-28.7-29.2.1-16.3,13-28.9,29.6-28.7h0Z" style="fill: #ae2d28;"/>
      <path d="m542.11,197.1c.1-16.5,12.7-28.7,29.5-28.6,15.8.1,29,13.4,28.7,29.1-.2,15.6-13.7,28.8-29.3,28.8s-29-12.9-28.9-29.3h0Z" style="fill: #ae2d28;"/>
    </g>
  </g>
  <g>
    <path d="m1155.8,268.2h-55.5v-3.9c2.9-.3,5.5-1.3,7.7-2.8s3.3-3.9,3.3-6.9v-3.5c0-1.5-.1-2.8-.3-4l-8.5-99.1c-.2-2.1-.2-4,0-5.9s.7-3.8,1.5-5.6l-.3-3.1-57.8,137.4-55.7-147.1-.3,3.1c1.2,2.7,1.6,6.4,1.3,11l-9,107.8c0,.9-.1,2.3-.3,4.4-.2,2.1-.3,3.5-.3,4.4,0,2.9,1.1,5.2,3.2,6.8s4.6,2.7,7.3,3.2v3.9h-40.1v-3.9c5.6-.9,9.6-2.9,11.9-6.2,2.3-3.2,3.6-7.4,4-12.6l11.8-135.1c.2-3.2-.1-6-.9-8.2s-1.9-4-3.5-5.4c-1.5-1.4-3.3-2.4-5.1-3.1-1.9-.7-3.7-1.2-5.4-1.5v-3.9h42.1l49,128.9.8-1.8c-.3-1.4-.5-2.7-.5-3.9s.4-2.7,1.3-4.6l49.8-118.6h35.2v3.9c-5,.9-8.9,2.8-11.7,5.9-2.8,3.1-3.9,7.9-3.2,14.4l11.6,134.8c.5,5.1,2,9,4.4,11.6s6.3,4.4,11.8,5.4v3.8h.4Z" style="fill: #ae2d28;"/>
    <path d="m1315.3,268.2h-126.3v-3.9c1.9-.3,3.8-.9,5.6-1.7,1.9-.8,3.6-1.9,5.1-3.5s2.8-3.6,3.7-6c.9-2.5,1.4-5.7,1.4-9.6V112.9c0-3.8-.5-7-1.4-9.6-.9-2.7-2.2-4.8-3.7-6.3s-3.3-2.7-5.1-3.3c-1.9-.7-3.8-1.1-5.6-1.3v-3.9h113.2c3.8,0,5.6-1.8,5.6-5.4h5.1v35.4h-5.2c-1-4.1-3.1-7.8-6.2-11s-7.9-4.9-14.4-4.9h-59.2v1.3c1.4,0,2.6.6,3.6,1.9,1,1.3,1.5,3.2,1.5,5.8v44.7c0,2.6-.5,4.5-1.5,5.8s-2.2,1.9-3.6,1.9v1.3h39.8c5.5,0,9.2-1.2,11.3-3.7,2.1-2.5,3.6-5.7,4.6-9.6h4.6v40.8h-4.6c-1-4.1-2.7-7.4-5-9.8-2.3-2.4-6.6-3.6-13-3.6h-37.7v1.3c1.4,0,2.6.6,3.6,1.9s1.5,3.2,1.5,5.8v56.7c0,2.6-.5,4.5-1.5,5.8s-2.2,1.9-3.6,1.9v1.3h61.6c6.5,0,11.3-1.8,14.5-5.5s5.2-8,6-13h5.1v32.6h.2Z" style="fill: #ae2d28;"/>
    <path d="m1518.1,178.4c0,13-2.4,25-7.3,35.9-4.9,11-11.6,20.4-20,28.4-8.5,8-18.4,14.2-29.8,18.7s-23.6,6.8-36.6,6.8h-73.4v-3.9c1.9-.3,3.8-.9,5.6-1.7,1.9-.8,3.6-1.9,5.1-3.5,1.5-1.5,2.8-3.6,3.7-6,.9-2.5,1.4-5.7,1.4-9.6V112.9c0-3.8-.5-6.9-1.4-9.5s-2.2-4.6-3.7-6.2c-1.5-1.5-3.3-2.7-5.1-3.3-1.9-.7-3.8-1.2-5.6-1.5v-3.9h73.4c13,0,25.2,2.3,36.6,6.8s21.3,10.8,29.8,18.7c8.5,8,15.1,17.4,20,28.4s7.3,23,7.3,36Zm-31.8,0c0-11-1.9-21.1-5.6-30.3-3.8-9.2-9-17.2-15.7-24s-14.6-12-23.9-15.8c-9.2-3.8-19.3-5.6-30.3-5.6h-20.8v1.3c1.4,0,2.6.6,3.6,1.9,1,1.3,1.5,3.2,1.5,5.8v133.5c0,2.6-.5,4.5-1.5,5.8s-2.2,1.9-3.6,1.9v1.3h20.8c11,0,21.1-1.9,30.3-5.6,9.2-3.8,17.2-9,23.9-15.8,6.7-6.8,11.9-14.8,15.7-24,3.7-9.4,5.6-19.5,5.6-30.4Z" style="fill: #ae2d28;"/>
    <path d="m1613.9,268.2h-60.1v-3.9c1.9-.3,3.8-.9,5.6-1.7,1.9-.8,3.6-1.9,5.1-3.5,1.5-1.5,2.8-3.6,3.7-6,.9-2.5,1.4-5.7,1.4-9.6V113.1c0-3.8-.5-6.9-1.4-9.5s-2.2-4.6-3.7-6.2c-1.5-1.5-3.3-2.7-5.1-3.5-1.9-.8-3.8-1.3-5.6-1.7v-3.9h60.1v3.9c-1.9.3-3.8.9-5.6,1.7-1.9.8-3.6,1.9-5.1,3.5-1.5,1.5-2.8,3.6-3.7,6.2-.9,2.6-1.4,5.7-1.4,9.5v130.7c0,3.8.5,6.9,1.4,9.4s2.2,4.5,3.7,6,3.2,2.7,5.1,3.5,3.8,1.3,5.6,1.7v3.8Z" style="fill: #ae2d28;"/>
    <path d="m1850.3,268.2h-55.5v-3.9c2.9-.3,5.5-1.3,7.7-2.8s3.3-3.9,3.3-6.9v-3.5c0-1.5-.1-2.8-.3-4l-8.5-99.1c-.2-2.1-.2-4,0-5.9s.7-3.8,1.5-5.6l-.3-3.1-57.8,137.4-55.7-147.1-.3,3.1c1.2,2.7,1.6,6.4,1.3,11l-9,107.8c0,.9-.1,2.3-.3,4.4-.2,2.1-.3,3.5-.3,4.4,0,2.9,1.1,5.2,3.2,6.8s4.6,2.7,7.3,3.2v3.9h-40.1v-3.9c5.6-.9,9.6-2.9,11.9-6.2,2.3-3.2,3.6-7.4,4-12.6l11.8-135.1c.2-3.2-.1-6-.9-8.2s-1.9-4-3.5-5.4c-1.5-1.4-3.3-2.4-5.1-3.1-1.9-.7-3.7-1.2-5.4-1.5v-3.9h42.1l49,128.9.8-1.8c-.3-1.4-.5-2.7-.5-3.9s.4-2.7,1.3-4.6l49.8-118.6h35.2v3.9c-5,.9-8.9,2.8-11.7,5.9s-3.9,7.9-3.2,14.4l11.6,134.8c.5,5.1,2,9,4.4,11.6s6.3,4.4,11.8,5.4v3.8h.4Z" style="fill: #ae2d28;"/>
    <path d="m2047.5,92.1c-6.3,1.4-10.6,3.7-12.7,7.1-2.1,3.3-3.2,7.2-3.2,11.7v98.1c0,7.5-1.5,15-4.5,22.5-3,7.4-7.4,14.2-13.2,20.2s-13,10.9-21.6,14.6c-8.6,3.8-18.4,5.6-29.5,5.6-7.2,0-14.7-1.4-22.6-4.1-7.9-2.7-15.1-6.8-21.8-12.1-6.7-5.3-12.2-11.9-16.4-19.9-4.3-8-6.4-17.2-6.4-27.6v-95.3c0-3.8-.5-6.9-1.4-9.5s-2.2-4.6-3.7-6.2c-1.5-1.5-3.3-2.7-5.1-3.5-1.9-.8-3.8-1.3-5.6-1.7v-3.9h60.1v3.9c-1.9.3-3.8.9-5.6,1.7-1.9.8-3.6,1.9-5.1,3.5-1.5,1.5-2.8,3.6-3.7,6.2-.9,2.6-1.4,5.7-1.4,9.5v97.6c0,5.6,1.1,11.1,3.3,16.4,2.2,5.3,5.4,9.9,9.5,13.9,4.1,3.9,9,7.1,14.8,9.5,5.7,2.4,12.1,3.6,19.1,3.6,6.5,0,12.6-1.2,18.2-3.5s10.6-5.4,14.8-9.2c4.2-3.9,7.5-8.4,9.9-13.6,2.4-5.2,3.6-10.8,3.6-16.8l.5-99.9c0-4.6-1.2-8.6-3.5-12.1-2.3-3.4-6.5-5.6-12.7-6.7v-3.9h46.2v3.9h-.3Z" style="fill: #ae2d28;"/>
    <path d="m2247.3,92.3c-6.3,1.4-10.6,3.7-12.7,7.1-2.1,3.3-3.2,7.2-3.2,11.7v161l-125.3-154.6v2.6c1.2,1.4,2.1,3,2.6,4.8s.8,4.4.8,7.8v113c0,4.6,1.2,8.6,3.5,12.1,2.3,3.4,6.5,5.6,12.7,6.7v3.9h-46.2v-3.9c6.3-1.4,10.6-3.7,12.7-7.1,2.1-3.3,3.2-7.2,3.2-11.7V104.5c-2.4-3.4-4.8-6.1-7.2-8.1s-5.3-3.3-8.7-4v-3.9h38.8l102.7,126.3v-2.8c-1.4-1.5-2.3-3.2-2.8-5s-.8-4.1-.8-7.1v-88.8c0-4.6-1.2-8.6-3.5-12.1-2.3-3.4-6.5-5.6-12.7-6.7v-3.9h46.2v3.9h-.1Z" style="fill: #ae2d28;"/>
    <path d="m1095.8,488.1h-39.6v-2.7c2.1-.2,3.9-.9,5.5-2s2.4-2.7,2.4-4.9v-2.5c0-1-.1-2-.2-2.8l-6-70.7c-.1-1.5-.1-2.9,0-4.2.1-1.3.5-2.7,1.1-4l-.2-2.2-41.2,98-39.8-105-.2,2.2c.9,2,1.2,4.6.9,7.9l-6.4,77c0,.6-.1,1.6-.2,3.1s-.2,2.5-.2,3.1c0,2.1.8,3.7,2.3,4.9,1.5,1.2,3.3,1.9,5.2,2.3v2.7h-28.6v-2.7c4-.6,6.9-2.1,8.5-4.4s2.6-5.3,2.8-9l8.4-96.4c.1-2.3-.1-4.3-.6-5.9s-1.4-2.9-2.5-3.8c-1.1-1-2.3-1.7-3.7-2.2-1.3-.5-2.6-.9-3.8-1.1v-2.7h30l35,92,.5-1.3c-.2-1-.4-1.9-.4-2.7,0-.9.3-2,.9-3.3l35.5-84.7h25.1v2.7c-3.5.6-6.3,2-8.3,4.2s-2.8,5.6-2.3,10.3l8.2,96.2c.4,3.7,1.4,6.4,3.1,8.2,1.7,1.8,4.5,3.1,8.4,3.8v2.6h.4Z" style="fill: #333;"/>
    <path d="m1198.7,433.5c0,1.3,0,2.5-.1,3.4s-.1,1.5-.1,1.7h-74.4v1.1c1.8.4,2.8,1.8,2.8,4.4,0,5.5.9,10.4,2.6,14.8s4.1,8.1,7.1,11.2,6.5,5.4,10.6,7.1c4.1,1.6,8.6,2.5,13.5,2.5,10.6,0,20-2.8,28-8.4l.2,7.3c-4.9,4-10,6.9-15.2,8.7-5.3,1.8-11.2,2.7-17.8,2.7-6.2,0-12.3-1.3-18.2-4-5.9-2.7-11.2-6.3-15.7-11-4.6-4.6-8.2-10.1-11-16.3-2.8-6.2-4.2-12.9-4.2-20s1.3-13.7,3.8-20c2.5-6.2,6-11.7,10.3-16.3,4.4-4.6,9.4-8.3,15.1-11s11.7-4,18-4,12.6,1.1,18.1,3.4,10.2,5.4,14.2,9.5,7,9,9.2,14.7c2.1,5.6,3.2,11.8,3.2,18.5Zm-17.9-4c-.7-.5-1.2-1.3-1.5-2.4-1-8.8-3.7-16-8.1-21.7s-10.1-8.5-17.2-8.5c-3.5,0-6.8.8-9.7,2.4-2.9,1.6-5.5,3.8-7.7,6.5s-4,6-5.5,9.6c-1.5,3.7-2.5,7.6-3.1,11.7-.1,1.1-.5,1.9-1.3,2.4h54.1Z" style="fill: #333;"/>
    <path d="m1308.5,482.1c-3.3.9-6.9,1.7-10.8,2.7-3.9.9-7.9,1.8-12.1,2.6-4.2.8-8.4,1.4-12.6,1.9-4.3.5-8.3.7-12.1.7-7,0-13.4-1.3-19.4-3.9s-11.2-6.3-15.7-10.9-8-10.1-10.5-16.3c-2.6-6.2-3.8-12.9-3.8-20.2s1.3-13.9,3.8-20.2c2.6-6.2,6.1-11.7,10.5-16.3,4.5-4.6,9.7-8.3,15.7-10.9s12.5-3.9,19.4-3.9c4.3,0,8.3.5,12.1,1.6,3.8,1,7,2.4,9.5,3.9v-1.1c-.9-.5-1.5-1.1-2-1.9s-.7-2.1-.7-3.9v-13.7c0-1.2-.1-2.5-.3-3.9-.2-1.4-.6-2.7-1.4-3.8-.7-1.2-1.8-2.2-3.2-3.1-1.4-.9-3.3-1.6-5.6-1.9v-2.7c1.8-.6,4-1.3,6.5-2.1,2.5-.8,5.1-1.6,7.8-2.4,2.7-.8,5.3-1.5,7.9-2.2s4.8-1.2,6.6-1.6v116.2c0,2.7.3,4.9.9,6.7.6,1.8,1.4,3.2,2.4,4.4,1,1.2,2.1,2,3.3,2.7,1.2.6,2.5,1,3.8,1.1v2.4h0Zm-27.7-6.6c-.7-.4-1.1-1.3-1.1-2.7v-63c0-1.6.4-2.7,1.1-3.3-2.1-2.8-4.9-5.1-8.3-6.9-3.5-1.8-7.4-2.7-11.6-2.7-4.9,0-9.2,1.1-12.8,3.2-3.7,2.1-6.7,5.1-9.2,8.9-2.4,3.8-4.3,8.2-5.5,13.3-1.2,5.1-1.8,10.6-1.8,16.6s.6,11.5,1.8,16.6c1.2,5.1,3.1,9.5,5.6,13.2s5.6,6.6,9.3,8.7c3.7,2.1,7.9,3.1,12.6,3.1,3.8,0,7.4-.5,10.9-1.4,3.4-1,6.5-2.2,9-3.6Z" style="fill: #333;"/>
    <path d="m1359.3,488.1h-39.2v-2.7c2.8-.5,5.3-1.7,7.4-3.7s3.2-5.7,3.2-11.2v-57.2c0-5.5-1.1-9.2-3.2-11.2s-4.6-3.2-7.4-3.7v-2.7c4.6-1.7,9.4-3.3,14.3-4.8s9.6-2.7,14.3-3.7v83.4c0,5.4,1.1,9,3.2,11s4.6,3.2,7.4,3.7v2.8h0Zm-8.7-127.3c0,3.5-1.2,6.5-3.6,8.9s-5.3,3.6-8.9,3.6-6.5-1.2-8.9-3.6-3.6-5.3-3.6-8.9,1.2-6.5,3.6-8.9,5.3-3.6,8.9-3.6,6.5,1.2,8.9,3.6c2.4,2.4,3.6,5.3,3.6,8.9Z" style="fill: #333;"/>
    <path d="m1426.1,485.4c-2,1.3-4.3,2.4-7.1,3.3-2.8.9-5.5,1.3-8.1,1.3-6.7,0-12-1.2-15.9-3.5s-6.9-5.3-8.9-8.9-3.3-7.5-3.8-11.7-.8-8.2-.8-11.8v-53.2c0-1.1.4-1.9,1.1-2.4h-13.6v-8.6h2c2.9,0,5.6-.5,8-1.4s4.4-2.5,6.1-4.9c1.7-2.3,3.1-5.4,4-9.3,1-3.8,1.5-8.7,1.5-14.6h9.2v23.8c0,1.7-.2,2.9-.6,3.6s-1.1,1-2.1,1v1.1h23.6v9.2h-22c.7.2,1.1,1,1.1,2.4v52.4c0,3.2.2,6.4.6,9.6s1.2,6.1,2.4,8.7c1.2,2.6,3.1,4.7,5.5,6.3,2.4,1.6,5.7,2.5,9.7,2.5,3.2,0,5.9-.5,8.2-1.5v6.6h-.1Z" style="fill: #333;"/>
    <path d="m1527.2,433.5c0,1.3,0,2.5-.1,3.4s-.1,1.5-.1,1.7h-74.4v1.1c1.8.4,2.8,1.8,2.8,4.4,0,5.5.9,10.4,2.6,14.8s4.1,8.1,7.1,11.2,6.5,5.4,10.6,7.1c4.1,1.6,8.6,2.5,13.5,2.5,10.6,0,20-2.8,28-8.4l.2,7.3c-4.9,4-10,6.9-15.2,8.7-5.3,1.8-11.2,2.7-17.8,2.7-6.2,0-12.3-1.3-18.2-4-5.9-2.7-11.2-6.3-15.7-11-4.6-4.6-8.2-10.1-11-16.3-2.8-6.2-4.2-12.9-4.2-20s1.3-13.7,3.8-20c2.5-6.2,6-11.7,10.3-16.3,4.4-4.6,9.4-8.3,15.1-11s11.7-4,18-4,12.6,1.1,18.1,3.4,10.2,5.4,14.2,9.5,7,9,9.2,14.7c2.2,5.6,3.2,11.8,3.2,18.5Zm-17.9-4c-.7-.5-1.2-1.3-1.5-2.4-1-8.8-3.7-16-8.1-21.7s-10.1-8.5-17.2-8.5c-3.5,0-6.8.8-9.7,2.4-2.9,1.6-5.5,3.8-7.7,6.5s-4,6-5.5,9.6c-1.5,3.7-2.5,7.6-3.1,11.7-.1,1.1-.5,1.9-1.3,2.4h54.1Z" style="fill: #333;"/>
    <path d="m1609.7,411.5c-1.6-3.9-4.2-7.2-7.7-9.8-3.5-2.6-7.2-3.9-11-3.9-2.9,0-5.8.6-8.6,1.9-2.8,1.3-5.3,3.5-7.4,6.5-2.1,3.1-3.9,7.1-5.2,12-1.3,4.9-2,11.1-2,18.4v34.1c0,5.4,1,9,3.1,11s4.5,3.2,7.3,3.7v2.7h-39.2v-2.7c2.8-.5,5.3-1.7,7.3-3.7,2.1-2,3.1-5.7,3.1-11.2v-57.2c0-5.5-1-9.2-3.1-11.2s-4.5-3.2-7.3-3.7v-2.7c4.6-1.7,9.4-3.3,14.4-4.8s9.7-2.7,14.4-3.7v7.5c0,1.2-.3,2.3-.9,3.1,3.1-3.5,6.2-6.2,9.5-8s6.5-2.7,9.7-2.7,5.9.5,8.2,1.6c2.3,1.1,4.2,2.3,6,3.5,1.6,1.1,3,1.3,4.1.5,1.2-.7,1.7-2.8,1.7-6.2h3.7v25h-.1Z" style="fill: #333;"/>
    <path d="m1687.8,411.5c-1.6-3.9-4.2-7.2-7.7-9.8-3.5-2.6-7.2-3.9-11-3.9-2.9,0-5.8.6-8.6,1.9-2.8,1.3-5.3,3.5-7.4,6.5-2.1,3.1-3.9,7.1-5.2,12-1.3,4.9-2,11.1-2,18.4v34.1c0,5.4,1,9,3.1,11s4.5,3.2,7.3,3.7v2.7h-39.2v-2.7c2.8-.5,5.3-1.7,7.3-3.7,2.1-2,3.1-5.7,3.1-11.2v-57.2c0-5.5-1-9.2-3.1-11.2s-4.5-3.2-7.3-3.7v-2.7c4.6-1.7,9.4-3.3,14.4-4.8s9.7-2.7,14.4-3.7v7.5c0,1.2-.3,2.3-.9,3.1,3.1-3.5,6.2-6.2,9.5-8s6.5-2.7,9.7-2.7,5.9.5,8.2,1.6c2.3,1.1,4.2,2.3,6,3.5,1.6,1.1,3,1.3,4.1.5,1.2-.7,1.7-2.8,1.7-6.2h3.7v25h-.1Z" style="fill: #333;"/>
    <path d="m1785.8,482.1c-8.1,3.2-15.8,5.3-23.3,6.3s-15.5,1.6-24.2,1.6c-4.9,0-9.9-.6-14.9-1.9-5.1-1.3-9.7-3.3-13.9-6-4.2-2.7-7.7-6.1-10.4-10.2-2.7-4.1-4-8.9-4-14.6,0-5.1,1.1-9.8,3.3-13.9,2.2-4.2,5.1-7.7,8.8-10.6,3.7-2.9,7.8-5.2,12.4-6.9,4.6-1.6,9.3-2.5,14-2.5s9.2.5,13.7,1.5,8.6,2.8,12.6,5.5v-1.1c-1.7-.6-2.6-1.7-2.7-3.4-.1-1.6-.1-3.1-.1-4.5,0-7.7-1.7-13.7-5.1-18s-9.2-6.5-17.2-6.5c-2.6,0-5.2.4-7.9,1.1-2.7.7-5.3,1.7-7.8,3s-4.9,2.8-7.1,4.5-4.1,3.5-5.7,5.5v-24.2h3.7c0,1.6.3,3.1.8,4.6s1.8,2.2,3.8,2.2c.7,0,1.5-.1,2.2-.4.7-.2,1.4-.5,2-.7,3.3-1.3,6.7-2.5,10.2-3.6,3.5-1,7.1-1.6,10.7-1.6,12,0,20.9,3.3,26.8,9.8s8.9,15.9,8.9,28.1v39.4c0,3.8.7,7.1,2.1,9.9s4.2,4.4,8.3,4.8v2.8h0Zm-26.9-4.4c-1-.5-1.5-1.3-1.6-2.3s-.2-2-.2-2.8v-29.7c0-.6,0-1.3.1-2.1.1-.8.4-1.4,1-1.7-2.7-2-5.4-3.5-8.2-4.5-2.8-1-5.9-1.6-9.2-1.6-3.5,0-6.9.6-10,1.7-3.1,1.2-5.8,2.8-8.1,4.9-2.3,2.1-4.1,4.7-5.4,7.7s-2,6.3-2,10,.6,7,1.9,9.9,3.1,5.4,5.3,7.5c2.3,2.1,4.9,3.7,8,4.8,3.1,1.1,6.4,1.6,9.9,1.6,3.2,0,6.3-.2,9.4-.7,3.1-.5,6.1-1.4,9.1-2.7Z" style="fill: #333;"/>
    <path d="m1897.9,488.1h-39.2v-2.7c4.2-.6,6.9-2.3,8.3-4.9,1.4-2.7,2.1-6,2.1-9.9v-40.5c0-11.6-1.9-20.2-5.8-25.7-3.8-5.5-9.4-8.2-16.8-8.2-4.5,0-8.8.7-12.9,2s-8.2,3.4-12.2,6v1.1c.9-.2,1.6-.2,2.2.3.6.4.9,1.6.9,3.6v61.7c0,3.9.7,7.1,2.2,9.7s4.2,4.2,8.2,4.8v2.7h-39.2v-2.7c4.2-.6,6.9-2.3,8.3-4.9,1.4-2.7,2.1-6,2.1-9.9v-56.8c0-3.9-.7-7.2-2.1-9.9-1.4-2.7-4.2-4.3-8.3-4.9v-2.7c11.2-2.8,21-5,29.2-6.5s15.8-2.3,22.8-2.3c12.5,0,22.2,3.5,29.1,10.5,7,7,10.4,17.6,10.4,31.6v41.2c0,3.8.8,7,2.3,9.7s4.2,4.3,8.2,4.9v2.7h.2Z" style="fill: #333;"/>
    <path d="m2000.9,433.5c0,1.3,0,2.5-.1,3.4s-.1,1.5-.1,1.7h-74.4v1.1c1.8.4,2.8,1.8,2.8,4.4,0,5.5.9,10.4,2.6,14.8s4.1,8.1,7.1,11.2,6.5,5.4,10.6,7.1c4.1,1.6,8.6,2.5,13.5,2.5,10.6,0,20-2.8,28-8.4l.2,7.3c-4.9,4-10,6.9-15.2,8.7-5.3,1.8-11.2,2.7-17.8,2.7-6.2,0-12.3-1.3-18.2-4-5.9-2.7-11.2-6.3-15.7-11-4.6-4.6-8.2-10.1-11-16.3-2.8-6.2-4.2-12.9-4.2-20s1.3-13.7,3.8-20c2.5-6.2,6-11.7,10.3-16.3,4.4-4.6,9.4-8.3,15.1-11s11.7-4,18-4,12.6,1.1,18.1,3.4,10.2,5.4,14.2,9.5,7,9,9.2,14.7c2.1,5.6,3.2,11.8,3.2,18.5Zm-17.9-4c-.7-.5-1.2-1.3-1.5-2.4-1-8.8-3.7-16-8.1-21.7s-10.1-8.5-17.2-8.5c-3.5,0-6.8.8-9.7,2.4-2.9,1.6-5.5,3.8-7.7,6.5s-4,6-5.5,9.6c-1.5,3.7-2.5,7.6-3.1,11.7-.1,1.1-.5,1.9-1.3,2.4h54.1Z" style="fill: #333;"/>
    <path d="m2103.3,482.1c-8.1,3.2-15.8,5.3-23.3,6.3s-15.5,1.6-24.2,1.6c-4.9,0-9.9-.6-14.9-1.9-5.1-1.3-9.7-3.3-13.9-6s-7.7-6.1-10.4-10.2-4-8.9-4-14.6c0-5.1,1.1-9.8,3.3-13.9,2.2-4.2,5.1-7.7,8.8-10.6s7.8-5.2,12.4-6.9c4.6-1.6,9.3-2.5,14-2.5s9.2.5,13.7,1.5,8.6,2.8,12.6,5.5v-1.1c-1.7-.6-2.6-1.7-2.7-3.4-.1-1.6-.1-3.1-.1-4.5,0-7.7-1.7-13.7-5.1-18-3.4-4.3-9.2-6.5-17.2-6.5-2.6,0-5.2.4-7.9,1.1s-5.3,1.7-7.8,3-4.9,2.8-7.1,4.5c-2.2,1.7-4.1,3.5-5.7,5.5v-24.2h3.7c0,1.6.3,3.1.8,4.6s1.8,2.2,3.8,2.2c.7,0,1.5-.1,2.2-.4.7-.2,1.4-.5,2-.7,3.3-1.3,6.7-2.5,10.2-3.6,3.5-1,7.1-1.6,10.7-1.6,12,0,20.9,3.3,26.8,9.8,5.9,6.5,8.9,15.9,8.9,28.1v39.4c0,3.8.7,7.1,2.1,9.9,1.4,2.8,4.2,4.4,8.3,4.8v2.8h0Zm-26.9-4.4c-1-.5-1.5-1.3-1.6-2.3s-.2-2-.2-2.8v-29.7c0-.6,0-1.3.1-2.1.1-.8.4-1.4,1-1.7-2.7-2-5.4-3.5-8.2-4.5s-5.9-1.6-9.2-1.6c-3.5,0-6.9.6-10,1.7-3.1,1.2-5.8,2.8-8.1,4.9s-4.1,4.7-5.4,7.7c-1.3,3-2,6.3-2,10s.6,7,1.9,9.9c1.3,2.9,3.1,5.4,5.3,7.5,2.3,2.1,4.9,3.7,8,4.8,3.1,1.1,6.4,1.6,9.9,1.6,3.2,0,6.3-.2,9.4-.7,3.2-.5,6.2-1.4,9.1-2.7Z" style="fill: #333;"/>
    <path d="m2215.5,488.1h-39.2v-2.7c4.2-.6,6.9-2.3,8.3-4.9,1.4-2.7,2.1-6,2.1-9.9v-40.5c0-11.6-1.9-20.2-5.8-25.7-3.8-5.5-9.4-8.2-16.8-8.2-4.5,0-8.8.7-12.9,2-4.1,1.3-8.2,3.4-12.2,6v1.1c.9-.2,1.6-.2,2.2.3.6.4.9,1.6.9,3.6v61.7c0,3.9.7,7.1,2.2,9.7s4.2,4.2,8.2,4.8v2.7h-39.2v-2.7c4.2-.6,6.9-2.3,8.3-4.9,1.4-2.7,2.1-6,2.1-9.9v-56.8c0-3.9-.7-7.2-2.1-9.9-1.4-2.7-4.2-4.3-8.3-4.9v-2.7c11.2-2.8,21-5,29.2-6.5s15.8-2.3,22.8-2.3c12.5,0,22.2,3.5,29.1,10.5,7,7,10.4,17.6,10.4,31.6v41.2c0,3.8.8,7,2.3,9.7s4.2,4.3,8.2,4.9v2.7h.2Z" style="fill: #333;"/>
    <path d="m2424.7,488.1h-39.6v-2.7c2.1-.2,3.9-.9,5.5-2s2.4-2.7,2.4-4.9v-2.5c0-1-.1-2-.2-2.8l-6-70.7c-.1-1.5-.1-2.9,0-4.2.1-1.3.5-2.7,1.1-4l-.2-2.2-41.2,98-39.8-105-.2,2.2c.9,2,1.2,4.6.9,7.9l-6.4,77c0,.6-.1,1.6-.2,3.1-.1,1.5-.2,2.5-.2,3.1,0,2.1.8,3.7,2.3,4.9,1.5,1.2,3.3,1.9,5.2,2.3v2.7h-28.6v-2.7c4-.6,6.9-2.1,8.5-4.4s2.6-5.3,2.8-9l8.4-96.4c.1-2.3-.1-4.3-.6-5.9s-1.4-2.9-2.5-3.8c-1.1-1-2.3-1.7-3.7-2.2-1.3-.5-2.6-.9-3.8-1.1v-2.7h30l35,92,.5-1.3c-.2-1-.4-1.9-.4-2.7,0-.9.3-2,.9-3.3l35.5-84.7h25.1v2.7c-3.5.6-6.3,2-8.3,4.2s-2.8,5.6-2.3,10.3l8.2,96.2c.4,3.7,1.4,6.4,3.1,8.2,1.7,1.8,4.5,3.1,8.4,3.8v2.6h.4Z" style="fill: #333;"/>
    <path d="m2534.7,438.6c0,7.1-1.3,13.7-3.8,20-2.5,6.2-6,11.7-10.4,16.3-4.4,4.6-9.6,8.3-15.7,11-6,2.7-12.6,4-19.7,4s-13.7-1.3-19.7-4-11.3-6.3-15.7-11c-4.4-4.6-7.8-10.1-10.4-16.3-2.5-6.2-3.8-12.9-3.8-20s1.3-13.7,3.8-20c2.5-6.2,6-11.7,10.4-16.3,4.4-4.6,9.6-8.3,15.7-11,6-2.7,12.6-4,19.7-4s13.7,1.3,19.7,4,11.3,6.4,15.7,11,7.8,10.1,10.4,16.3c2.5,6.3,3.8,12.9,3.8,20Zm-20.2,0c0-5.6-.6-11-1.7-16-1.2-5.1-3-9.5-5.4-13.4-2.4-3.8-5.5-6.9-9.2-9.1s-8-3.3-13-3.3-9.4,1.1-13.1,3.3c-3.7,2.2-6.8,5.2-9.2,9.1-2.4,3.8-4.2,8.3-5.3,13.4-1.2,5.1-1.7,10.4-1.7,16s.6,11.1,1.7,16.1c1.2,5,2.9,9.4,5.3,13.3,2.4,3.8,5.4,6.9,9.2,9.1,3.7,2.2,8.1,3.3,13.1,3.3s9.4-1.1,13.1-3.3c3.7-2.2,6.8-5.2,9.2-9.1,2.4-3.8,4.2-8.3,5.3-13.3,1.1-5,1.7-10.3,1.7-16.1Z" style="fill: #333;"/>
    <path d="m2644.6,482.1c-3.3.9-6.9,1.7-10.8,2.7-3.9.9-7.9,1.8-12.1,2.6-4.2.8-8.4,1.4-12.6,1.9-4.3.5-8.3.7-12.1.7-7,0-13.4-1.3-19.4-3.9s-11.2-6.3-15.7-10.9-8-10.1-10.5-16.3c-2.6-6.2-3.8-12.9-3.8-20.2s1.3-13.9,3.8-20.2,6.1-11.7,10.5-16.3c4.5-4.6,9.7-8.3,15.7-10.9s12.5-3.9,19.4-3.9c4.3,0,8.3.5,12.1,1.6,3.8,1,7,2.4,9.5,3.9v-1.1c-.9-.5-1.5-1.1-2-1.9s-.7-2.1-.7-3.9v-13.7c0-1.2-.1-2.5-.3-3.9s-.6-2.7-1.4-3.8c-.7-1.2-1.8-2.2-3.2-3.1s-3.3-1.6-5.6-1.9v-2.7c1.8-.6,4-1.3,6.5-2.1,2.5-.8,5.1-1.6,7.8-2.4s5.3-1.5,7.9-2.2c2.6-.7,4.8-1.2,6.6-1.6v116.2c0,2.7.3,4.9.9,6.7.6,1.8,1.4,3.2,2.4,4.4,1,1.2,2.1,2,3.3,2.7,1.2.6,2.5,1,3.8,1.1v2.4h0Zm-27.7-6.6c-.7-.4-1.1-1.3-1.1-2.7v-63c0-1.6.4-2.7,1.1-3.3-2.1-2.8-4.9-5.1-8.3-6.9-3.5-1.8-7.4-2.7-11.6-2.7-4.9,0-9.2,1.1-12.8,3.2-3.7,2.1-6.7,5.1-9.2,8.9-2.4,3.8-4.3,8.2-5.5,13.3-1.2,5.1-1.8,10.6-1.8,16.6s.6,11.5,1.8,16.6,3.1,9.5,5.6,13.2,5.6,6.6,9.3,8.7,7.9,3.1,12.6,3.1c3.8,0,7.4-.5,10.9-1.4,3.4-1,6.5-2.2,9-3.6Z" style="fill: #333;"/>
    <path d="m2748.5,433.5c0,1.3,0,2.5-.1,3.4s-.1,1.5-.1,1.7h-74.4v1.1c1.8.4,2.8,1.8,2.8,4.4,0,5.5.9,10.4,2.6,14.8,1.7,4.4,4.1,8.1,7.1,11.2s6.5,5.4,10.6,7.1c4.1,1.6,8.6,2.5,13.5,2.5,10.6,0,20-2.8,28-8.4l.2,7.3c-4.9,4-10,6.9-15.2,8.7-5.3,1.8-11.2,2.7-17.8,2.7-6.2,0-12.3-1.3-18.2-4s-11.2-6.3-15.7-11c-4.6-4.6-8.2-10.1-11-16.3-2.8-6.2-4.2-12.9-4.2-20s1.3-13.7,3.8-20c2.5-6.2,6-11.7,10.3-16.3,4.4-4.6,9.4-8.3,15.1-11,5.7-2.7,11.7-4,18-4s12.6,1.1,18.1,3.4,10.2,5.4,14.2,9.5,7,9,9.2,14.7c2.1,5.6,3.2,11.8,3.2,18.5Zm-18-4c-.7-.5-1.2-1.3-1.5-2.4-1-8.8-3.7-16-8.1-21.7-4.4-5.7-10.1-8.5-17.2-8.5-3.5,0-6.8.8-9.7,2.4s-5.5,3.8-7.7,6.5-4,6-5.5,9.6c-1.5,3.7-2.5,7.6-3.1,11.7-.1,1.1-.5,1.9-1.3,2.4h54.1Z" style="fill: #333;"/>
    <path d="m2800,488.1h-39.2v-2.7c2.8-.5,5.2-1.7,7.3-3.7s3.1-5.7,3.1-11.2v-97.3c0-2.7-.3-4.9-.8-6.6s-1.3-3.1-2.3-4.1-2.1-1.8-3.4-2.2c-1.3-.4-2.6-.8-3.9-1v-2.7c2.2-.7,4.5-1.5,7.1-2.3,2.5-.8,5-1.6,7.6-2.3s5-1.4,7.4-2,4.6-1.2,6.7-1.6v122.4c0,5.4,1,9,3.1,11s4.5,3.2,7.3,3.7v2.6h0Z" style="fill: #333;"/>
    <path d="m1071.4,582.3c-4.5,1-7.5,2.7-9.1,5-1.5,2.4-2.3,5.2-2.3,8.3v70c0,5.4-1.1,10.7-3.2,16s-5.3,10.1-9.4,14.4c-4.2,4.3-9.3,7.8-15.4,10.4-6.1,2.7-13.1,4-21.1,4-5.1,0-10.5-1-16.1-2.9-5.6-2-10.8-4.8-15.6-8.6-4.8-3.8-8.7-8.5-11.7-14.2-3.1-5.7-4.6-12.2-4.6-19.7v-68c0-2.7-.3-4.9-1-6.8-.7-1.8-1.6-3.3-2.7-4.4-1.1-1.1-2.3-1.9-3.7-2.5-1.3-.5-2.7-.9-4-1.2v-2.7h42.9v2.7c-1.3.2-2.7.6-4,1.2-1.3.5-2.6,1.4-3.7,2.5s-2,2.6-2.7,4.4c-.7,1.8-1,4.1-1,6.8v69.6c0,4,.8,7.9,2.4,11.7s3.8,7.1,6.8,9.9c2.9,2.8,6.4,5.1,10.5,6.8,4.1,1.7,8.6,2.6,13.7,2.6,4.6,0,9-.8,13-2.5,4-1.6,7.5-3.8,10.5-6.6,3-2.7,5.3-6,7.1-9.7,1.7-3.7,2.6-7.7,2.6-12l.4-71.3c0-3.3-.8-6.2-2.5-8.6-1.6-2.4-4.7-4-9.1-4.8v-2.7h33v2.9h0Z" style="fill: #333;"/>
    <path d="m1183.5,708h-39.2v-2.7c4.2-.6,6.9-2.3,8.3-4.9,1.4-2.7,2.1-6,2.1-9.9v-40.6c0-11.6-1.9-20.2-5.8-25.7s-9.4-8.2-16.8-8.2c-4.5,0-8.8.7-12.9,2s-8.2,3.4-12.2,6v1.1c.9-.2,1.6-.2,2.2.3.6.4.9,1.6.9,3.6v61.7c0,3.9.7,7.1,2.2,9.7s4.2,4.2,8.2,4.8v2.7h-39.2v-2.7c4.2-.6,6.9-2.3,8.3-4.9,1.4-2.7,2.1-6,2.1-9.9v-56.8c0-3.9-.7-7.2-2.1-9.9s-4.2-4.3-8.3-4.9v-2.7c11.2-2.8,21-5,29.2-6.5s15.8-2.3,22.8-2.3c12.5,0,22.2,3.5,29.1,10.5,7,7,10.4,17.6,10.4,31.6v41.2c0,3.8.8,7,2.3,9.7s4.2,4.3,8.2,4.9v2.8h.2Z" style="fill: #333;"/>
    <path d="m1233.4,708h-39.2v-2.7c2.8-.5,5.3-1.7,7.4-3.7s3.2-5.7,3.2-11.2v-57.2c0-5.5-1.1-9.2-3.2-11.2s-4.6-3.2-7.4-3.7v-2.7c4.6-1.7,9.4-3.3,14.3-4.8s9.6-2.7,14.3-3.7v83.4c0,5.4,1.1,9,3.2,11s4.6,3.2,7.4,3.7v2.8h0Zm-8.6-127.4c0,3.5-1.2,6.5-3.6,8.9s-5.3,3.6-8.9,3.6-6.5-1.2-8.9-3.6-3.6-5.3-3.6-8.9,1.2-6.5,3.6-8.9,5.3-3.6,8.9-3.6,6.5,1.2,8.9,3.6,3.6,5.4,3.6,8.9Z" style="fill: #333;"/>
    <path d="m1300.3,705.2c-2,1.3-4.3,2.4-7.1,3.3-2.8.9-5.5,1.3-8.1,1.3-6.7,0-12-1.2-15.9-3.5s-6.9-5.3-8.9-8.9-3.3-7.5-3.8-11.7-.8-8.2-.8-11.8v-53.1c0-1.1.4-1.9,1.1-2.4h-13.6v-8.6h2c2.9,0,5.6-.5,8-1.4s4.4-2.5,6.1-4.9c1.7-2.3,3.1-5.4,4-9.3,1-3.8,1.5-8.7,1.5-14.6h9.2v23.8c0,1.7-.2,2.9-.6,3.6-.4.7-1.1,1-2.1,1v1.1h23.6v9.2h-22c.7.2,1.1,1,1.1,2.4v52.4c0,3.2.2,6.4.5,9.6.4,3.2,1.2,6.1,2.4,8.7,1.2,2.6,3.1,4.7,5.5,6.3,2.4,1.6,5.7,2.5,9.7,2.5,3.2,0,5.9-.5,8.2-1.5v6.5h0Z" style="fill: #333;"/>
    <path d="m1401.4,653.4c0,1.3,0,2.5-.1,3.4s-.1,1.5-.1,1.7h-74.4v1.1c1.8.4,2.8,1.8,2.8,4.4,0,5.5.9,10.4,2.6,14.8,1.7,4.4,4.1,8.1,7.1,11.2,3,3.1,6.5,5.4,10.6,7.1,4.1,1.6,8.6,2.5,13.5,2.5,10.6,0,20-2.8,28-8.4l.2,7.3c-4.9,4-10,6.9-15.2,8.7-5.3,1.8-11.2,2.7-17.8,2.7-6.2,0-12.3-1.3-18.2-4-5.9-2.7-11.2-6.3-15.7-11-4.6-4.6-8.2-10.1-11-16.3s-4.2-12.9-4.2-20,1.3-13.7,3.8-20c2.5-6.2,6-11.7,10.3-16.3,4.4-4.6,9.4-8.3,15.1-11s11.7-4,18-4,12.6,1.1,18.1,3.4c5.5,2.3,10.2,5.4,14.2,9.5s7,9,9.2,14.7c2.1,5.6,3.2,11.8,3.2,18.5Zm-18-4.1c-.7-.5-1.2-1.3-1.5-2.4-1-8.8-3.7-16-8.1-21.7s-10.1-8.5-17.2-8.5c-3.5,0-6.8.8-9.7,2.4-2.9,1.6-5.5,3.8-7.7,6.5s-4,6-5.5,9.6c-1.5,3.7-2.5,7.6-3.1,11.7-.1,1.1-.5,1.9-1.3,2.4h54.1Z" style="fill: #333;"/>
    <path d="m1511.1,701.9c-3.3.9-6.9,1.7-10.8,2.7-3.9.9-7.9,1.8-12.1,2.6-4.2.8-8.4,1.4-12.6,1.9-4.3.5-8.3.7-12.1.7-7,0-13.4-1.3-19.4-3.9s-11.2-6.3-15.7-10.9c-4.5-4.6-8-10.1-10.5-16.3-2.6-6.2-3.8-12.9-3.8-20.2s1.3-13.9,3.8-20.2,6.1-11.7,10.5-16.3c4.5-4.6,9.7-8.3,15.7-10.9,6-2.6,12.5-3.9,19.4-3.9,4.3,0,8.3.5,12.1,1.6,3.8,1,7,2.4,9.5,3.9v-1.1c-.9-.5-1.5-1.1-2-1.9-.5-.8-.7-2.1-.7-3.9v-13.7c0-1.2-.1-2.5-.3-3.9-.2-1.4-.6-2.7-1.4-3.8-.7-1.2-1.8-2.2-3.2-3.1-1.4-.9-3.3-1.6-5.6-1.9v-2.7c1.8-.6,4-1.3,6.5-2.1s5.1-1.6,7.8-2.4c2.7-.8,5.3-1.5,7.9-2.2s4.8-1.2,6.6-1.6v116.2c0,2.7.3,4.9.9,6.7s1.4,3.2,2.4,4.4c1,1.2,2.1,2,3.3,2.7,1.2.6,2.5,1,3.8,1.1v2.4h0Zm-27.6-6.6c-.7-.4-1.1-1.3-1.1-2.7v-63c0-1.6.4-2.7,1.1-3.3-2.1-2.8-4.9-5.1-8.3-6.9-3.5-1.8-7.4-2.7-11.6-2.7-4.9,0-9.2,1.1-12.8,3.2-3.7,2.1-6.7,5.1-9.2,8.9-2.4,3.8-4.3,8.2-5.5,13.3s-1.8,10.6-1.8,16.6.6,11.5,1.8,16.6c1.2,5.1,3.1,9.5,5.6,13.2s5.6,6.6,9.3,8.7c3.7,2.1,7.9,3.1,12.6,3.1,3.8,0,7.4-.5,10.9-1.4,3.4-.9,6.4-2.1,9-3.6Z" style="fill: #333;"/>
    <path d="m1696.9,582.5c-4.5,1-7.5,2.7-9.1,5-1.5,2.4-2.3,5.2-2.3,8.3v114.9l-89.4-110.3v1.8c.9,1,1.5,2.1,1.8,3.4.4,1.3.5,3.1.5,5.6v80.6c0,3.3.8,6.2,2.5,8.6,1.6,2.4,4.7,4,9.1,4.8v2.7h-33v-2.7c4.5-1,7.5-2.7,9.1-5,1.5-2.4,2.3-5.2,2.3-8.3v-100.8c-1.7-2.4-3.4-4.4-5.1-5.8-1.7-1.4-3.8-2.4-6.2-2.8v-2.7h27.7l73.3,90.1v-2c-1-1.1-1.6-2.3-2-3.6s-.5-3-.5-5v-63.4c0-3.3-.8-6.2-2.5-8.6-1.6-2.4-4.7-4-9.1-4.8v-2.7h33v2.7h-.1Z" style="fill: #333;"/>
    <path d="m1797.7,701.9c-8.1,3.2-15.8,5.3-23.3,6.3s-15.5,1.6-24.2,1.6c-4.9,0-9.9-.6-14.9-1.9-5.1-1.3-9.7-3.3-13.9-6-4.2-2.7-7.7-6.1-10.4-10.2-2.7-4.1-4-8.9-4-14.6,0-5.1,1.1-9.8,3.3-13.9,2.2-4.2,5.1-7.7,8.8-10.6,3.7-2.9,7.8-5.2,12.4-6.9,4.6-1.6,9.3-2.5,14-2.5s9.2.5,13.7,1.5,8.6,2.8,12.6,5.5v-1.1c-1.7-.6-2.6-1.7-2.7-3.4-.1-1.6-.1-3.1-.1-4.5,0-7.7-1.7-13.7-5.1-18s-9.2-6.5-17.2-6.5c-2.6,0-5.2.4-7.9,1.1-2.7.7-5.3,1.7-7.8,3s-4.9,2.8-7.1,4.5-4.1,3.5-5.7,5.5v-24.2h3.7c0,1.6.3,3.1.8,4.6s1.8,2.2,3.8,2.2c.7,0,1.5-.1,2.2-.4.7-.2,1.4-.5,2-.7,3.3-1.3,6.7-2.5,10.2-3.6,3.5-1,7.1-1.6,10.7-1.6,12,0,20.9,3.3,26.8,9.8s8.9,15.9,8.9,28.1v39.4c0,3.8.7,7.1,2.1,9.9,1.4,2.8,4.2,4.4,8.3,4.8v2.8h0Zm-26.9-4.4c-1-.5-1.5-1.3-1.6-2.3s-.2-2-.2-2.8v-29.7c0-.6,0-1.3.1-2.1s.4-1.4,1-1.7c-2.7-2-5.4-3.5-8.2-4.5-2.8-1-5.9-1.6-9.2-1.6-3.5,0-6.9.6-10,1.7-3.1,1.2-5.8,2.8-8.1,4.9-2.3,2.1-4.1,4.7-5.4,7.7s-2,6.3-2,10,.6,7,1.9,9.9,3.1,5.4,5.3,7.5c2.3,2.1,4.9,3.7,8,4.8,3.1,1.1,6.4,1.6,9.9,1.6,3.2,0,6.3-.2,9.4-.7,3.1-.4,6.2-1.3,9.1-2.7Z" style="fill: #333;"/>
    <path d="m1864,705.2c-2,1.3-4.3,2.4-7.1,3.3-2.8.9-5.5,1.3-8.1,1.3-6.7,0-12-1.2-15.9-3.5s-6.9-5.3-8.9-8.9-3.3-7.5-3.8-11.7-.8-8.2-.8-11.8v-53.1c0-1.1.4-1.9,1.1-2.4h-13.6v-8.6h2c2.9,0,5.6-.5,8-1.4s4.4-2.5,6.1-4.9c1.7-2.3,3.1-5.4,4-9.3,1-3.8,1.5-8.7,1.5-14.6h9.2v23.8c0,1.7-.2,2.9-.6,3.6-.4.7-1.1,1-2.1,1v1.1h23.6v9.2h-22c.7.2,1.1,1,1.1,2.4v52.4c0,3.2.2,6.4.5,9.6.4,3.2,1.2,6.1,2.4,8.7,1.2,2.6,3.1,4.7,5.5,6.3,2.4,1.6,5.7,2.5,9.7,2.5,3.2,0,5.9-.5,8.2-1.5v6.5h0Z" style="fill: #333;"/>
    <path d="m1912.1,708h-39.2v-2.7c2.8-.5,5.3-1.7,7.4-3.7s3.2-5.7,3.2-11.2v-57.2c0-5.5-1.1-9.2-3.2-11.2s-4.6-3.2-7.4-3.7v-2.7c4.6-1.7,9.4-3.3,14.3-4.8s9.6-2.7,14.3-3.7v83.4c0,5.4,1.1,9,3.2,11s4.6,3.2,7.4,3.7v2.8h0Zm-8.7-127.4c0,3.5-1.2,6.5-3.6,8.9s-5.3,3.6-8.9,3.6-6.5-1.2-8.9-3.6-3.6-5.3-3.6-8.9,1.2-6.5,3.6-8.9,5.3-3.6,8.9-3.6,6.5,1.2,8.9,3.6,3.6,5.4,3.6,8.9Z" style="fill: #333;"/>
    <path d="m2022.5,658.5c0,7.1-1.3,13.7-3.8,20-2.5,6.2-6,11.7-10.4,16.3-4.4,4.6-9.6,8.3-15.7,11-6,2.7-12.6,4-19.7,4s-13.7-1.3-19.7-4-11.3-6.3-15.7-11c-4.4-4.6-7.8-10.1-10.4-16.3-2.5-6.2-3.8-12.9-3.8-20s1.3-13.7,3.8-20c2.5-6.2,6-11.7,10.4-16.3s9.6-8.3,15.7-11c6-2.7,12.6-4,19.7-4s13.7,1.3,19.7,4,11.3,6.4,15.7,11,7.8,10.1,10.4,16.3c2.6,6.3,3.8,12.9,3.8,20Zm-20.1,0c0-5.6-.6-11-1.7-16-1.2-5.1-3-9.5-5.4-13.4-2.4-3.8-5.5-6.9-9.2-9.1-3.7-2.2-8-3.3-13-3.3s-9.4,1.1-13.1,3.3-6.8,5.2-9.2,9.1-4.2,8.3-5.3,13.4c-1.2,5.1-1.7,10.4-1.7,16s.6,11.1,1.7,16.1c1.2,5,2.9,9.4,5.3,13.3,2.4,3.8,5.4,6.9,9.2,9.1,3.7,2.2,8.1,3.3,13.1,3.3s9.4-1.1,13.1-3.3c3.7-2.2,6.8-5.2,9.2-9.1,2.4-3.8,4.2-8.3,5.3-13.3,1.1-5,1.7-10.4,1.7-16.1Z" style="fill: #333;"/>
    <path d="m2136.5,708h-39.2v-2.7c4.2-.6,6.9-2.3,8.3-4.9,1.4-2.7,2.1-6,2.1-9.9v-40.6c0-11.6-1.9-20.2-5.8-25.7s-9.4-8.2-16.8-8.2c-4.5,0-8.8.7-12.9,2-4.1,1.3-8.2,3.4-12.2,6v1.1c.9-.2,1.6-.2,2.2.3.6.4.9,1.6.9,3.6v61.7c0,3.9.7,7.1,2.2,9.7s4.2,4.2,8.2,4.8v2.7h-39.2v-2.7c4.2-.6,6.9-2.3,8.3-4.9,1.4-2.7,2.1-6,2.1-9.9v-56.8c0-3.9-.7-7.2-2.1-9.9-1.4-2.7-4.2-4.3-8.3-4.9v-2.7c11.2-2.8,21-5,29.2-6.5s15.8-2.3,22.8-2.3c12.5,0,22.2,3.5,29.1,10.5,7,7,10.4,17.6,10.4,31.6v41.2c0,3.8.8,7,2.3,9.7s4.2,4.3,8.2,4.9v2.8h.2Z" style="fill: #333;"/>
    <path d="m2210.3,682c0,4-.7,7.7-2.1,11.1-1.4,3.4-3.4,6.3-6,8.8s-5.6,4.5-9.1,5.9-7.3,2.1-11.5,2.1-8.5-.6-12.6-1.9c-4.2-1.3-7.5-2.6-9.9-3.9-2-1-3.6-1.1-4.9-.4-1.3.7-2,2.9-2,6.4h-3.7v-24.9c1.5,2.2,3.2,4.2,5.1,6,2,1.8,4.1,3.3,6.4,4.5,2.3,1.2,4.7,2.2,7.1,2.8,2.4.7,4.7,1,7.1,1,5,0,9.1-1.4,12.3-4.2,3.2-2.8,4.8-6.6,4.8-11.4,0-3.5-1.1-6.7-3.3-9.5s-5.4-5.4-9.7-7.9l-16.7-9.7c-5.3-2.9-9.1-6.5-11.5-10.8s-3.6-8.9-3.6-13.9c0-3.4.7-6.6,2.1-9.6,1.4-3,3.4-5.6,5.9-7.8s5.4-3.9,8.6-5.2c3.2-1.3,6.7-1.9,10.4-1.9,4.4,0,8.1.5,11.1,1.6,3,1,5.9,2.2,8.7,3.6,2.1,1,3.8,1.2,5,.5,1.3-.6,1.9-2.7,1.9-6.2h3.7v24.7c-2.6-4.5-5.8-7.9-9.8-10.3-4-2.3-8.2-3.5-12.7-3.5-5.1,0-9.1,1.2-11.8,3.5s-4.1,5.3-4.1,8.8c0,5.3,3.2,9.8,9.7,13.6l18,10.8c5.7,3.4,10,7.4,12.9,11.8,2.8,4.3,4.2,9.5,4.2,15.5Z" style="fill: #333;"/>
  </g>
</svg>