<?xml version="1.0" encoding="UTF-8"?>
<svg id="Layer_1" data-name="Layer 1" xmlns="http://www.w3.org/2000/svg" viewBox="0 0 1961.43 252.7">
  <g style="isolation: isolate;">
    <path d="m272.3,247.89h-74.26v-5.16c3.89-.46,7.33-1.72,10.31-3.78,2.98-2.06,4.47-5.16,4.47-9.28v-4.64c0-1.94-.12-3.72-.34-5.33l-11.35-132.71c-.23-2.75-.23-5.38,0-7.91.23-2.52.91-5.04,2.06-7.56l-.34-4.13-77.36,183.94L50.88,54.32l-.34,4.13c1.6,3.67,2.18,8.6,1.72,14.78l-12.03,144.4c0,1.15-.12,3.09-.34,5.84-.23,2.75-.34,4.7-.34,5.84,0,3.9,1.43,6.94,4.3,9.11,2.86,2.18,6.13,3.61,9.8,4.3v5.16H0v-5.16c7.56-1.14,12.89-3.89,15.99-8.25,3.09-4.35,4.87-9.97,5.33-16.85l15.82-180.85c.23-4.35-.17-8.02-1.2-11-1.03-2.98-2.58-5.38-4.64-7.22-2.06-1.83-4.36-3.21-6.88-4.13-2.52-.91-4.93-1.6-7.22-2.06v-5.16h56.38l65.67,172.59,1.03-2.41c-.46-1.83-.69-3.55-.69-5.16s.57-3.66,1.72-6.19L208.01,7.22h47.1v5.16c-6.65,1.15-11.86,3.78-15.64,7.91s-5.22,10.55-4.3,19.25l15.47,180.5c.69,6.88,2.63,12.03,5.84,15.47,3.21,3.44,8.48,5.84,15.82,7.22v5.16Z" style="fill: #ae2d28;"/>
    <path d="m483.05,247.89h-169.16v-5.16c2.52-.46,5.04-1.2,7.56-2.23,2.52-1.03,4.81-2.58,6.88-4.64s3.72-4.75,4.99-8.08c1.26-3.32,1.89-7.62,1.89-12.89V39.88c0-5.04-.63-9.34-1.89-12.89-1.26-3.55-2.92-6.36-4.99-8.42-2.06-2.06-4.36-3.55-6.88-4.47-2.52-.91-5.04-1.49-7.56-1.72v-5.16h151.62c5.04,0,7.56-2.41,7.56-7.22h6.88v47.45h-6.9c-1.38-5.5-4.14-10.43-8.28-14.78-4.14-4.35-10.57-6.53-19.31-6.53h-79.32v1.72c1.83,0,3.44.86,4.81,2.58,1.38,1.72,2.06,4.3,2.06,7.74v59.82c0,3.44-.69,6.02-2.06,7.74-1.38,1.72-2.98,2.58-4.81,2.58v1.72h53.29c7.33,0,12.38-1.66,15.13-4.99,2.75-3.32,4.81-7.62,6.19-12.89h6.19v54.67h-6.19c-1.38-5.5-3.61-9.85-6.7-13.07-3.09-3.21-8.89-4.81-17.36-4.81h-50.54v1.72c1.83,0,3.44.86,4.81,2.58,1.38,1.72,2.06,4.3,2.06,7.74v75.98c0,3.44-.69,6.02-2.06,7.74-1.38,1.72-2.98,2.58-4.81,2.58v1.72h82.51c8.71,0,15.18-2.46,19.43-7.39,4.24-4.93,6.93-10.71,8.08-17.36h6.88v43.66Z" style="fill: #ae2d28;"/>
    <path d="m751.91,127.55c0,17.42-3.27,33.47-9.8,48.13-6.53,14.67-15.47,27.33-26.82,37.99s-24.64,19.03-39.88,25.1c-15.25,6.08-31.58,9.11-48.99,9.11h-98.33v-5.16c2.52-.46,5.04-1.2,7.56-2.23,2.52-1.03,4.81-2.58,6.88-4.64s3.72-4.75,4.99-8.08c1.26-3.32,1.89-7.62,1.89-12.89V39.88c0-5.04-.63-9.28-1.89-12.72-1.26-3.44-2.92-6.19-4.99-8.25-2.06-2.06-4.36-3.55-6.88-4.47-2.52-.91-5.04-1.6-7.56-2.06v-5.16h98.33c17.42,0,33.75,3.04,48.99,9.11,15.24,6.08,28.54,14.44,39.88,25.1s20.28,23.33,26.82,37.99c6.53,14.67,9.8,30.72,9.8,48.13Zm-42.63,0c0-14.67-2.52-28.19-7.56-40.57-5.04-12.38-12.03-23.09-20.97-32.15-8.94-9.05-19.6-16.1-31.97-21.14-12.38-5.04-25.9-7.56-40.57-7.56h-27.85v1.72c1.83,0,3.44.86,4.81,2.58,1.38,1.72,2.06,4.3,2.06,7.74v178.78c0,3.44-.69,6.02-2.06,7.74-1.38,1.72-2.98,2.58-4.81,2.58v1.72h27.85c14.67,0,28.19-2.52,40.57-7.56,12.38-5.04,23.04-12.09,31.97-21.14,8.94-9.05,15.93-19.77,20.97-32.15,5.04-12.38,7.56-25.9,7.56-40.57Z" style="fill: #ae2d28;"/>
    <path d="m877.4,247.89h-80.45v-5.16c2.52-.46,5.04-1.2,7.56-2.23,2.52-1.03,4.81-2.58,6.88-4.64s3.72-4.75,4.99-8.08c1.26-3.32,1.89-7.62,1.89-12.89V40.23c0-5.04-.63-9.28-1.89-12.72-1.26-3.44-2.92-6.19-4.99-8.25-2.06-2.06-4.36-3.61-6.88-4.64-2.52-1.03-5.04-1.77-7.56-2.23v-5.16h80.45v5.16c-2.52.46-5.04,1.2-7.56,2.23-2.52,1.03-4.81,2.58-6.88,4.64-2.06,2.06-3.73,4.81-4.99,8.25-1.26,3.44-1.89,7.68-1.89,12.72v175c0,5.04.63,9.23,1.89,12.55,1.26,3.33,2.92,6.02,4.99,8.08s4.35,3.61,6.88,4.64c2.52,1.03,5.04,1.78,7.56,2.23v5.16Z" style="fill: #ae2d28;"/>
    <path d="m1112.22,176.72c0,9.86-1.89,19.08-5.67,27.68-3.78,8.6-8.88,16.11-15.3,22.52s-13.92,11.52-22.52,15.3c-8.59,3.78-17.82,5.67-27.68,5.67h-118.62v-5.16c2.52-.46,5.04-1.2,7.56-2.23,2.52-1.03,4.81-2.58,6.88-4.64s3.72-4.75,4.99-8.08c1.26-3.32,1.89-7.62,1.89-12.89V39.88c0-5.04-.63-9.28-1.89-12.72-1.26-3.44-2.92-6.19-4.99-8.25-2.06-2.06-4.36-3.55-6.88-4.47-2.52-.91-5.04-1.6-7.56-2.06v-5.16h111.05c8.02,0,15.58,1.55,22.69,4.64,7.1,3.09,13.35,7.34,18.74,12.72,5.38,5.39,9.63,11.64,12.72,18.74,3.09,7.11,4.64,14.67,4.64,22.69,0,9.4-2.58,18.22-7.74,26.47-5.16,8.25-11.4,14.67-18.74,19.25,6.88,2.52,13.18,5.96,18.91,10.31,5.73,4.36,10.66,9.4,14.78,15.13,4.13,5.73,7.27,11.98,9.46,18.74,2.18,6.76,3.27,13.7,3.27,20.8Zm-59.48-110.71c0-5.27-.98-10.31-2.92-15.13-1.95-4.81-4.64-9.05-8.08-12.72-3.44-3.66-7.51-6.59-12.21-8.77-4.7-2.18-9.8-3.27-15.3-3.27h-39.54v1.72c1.83,0,3.44.86,4.81,2.58,1.38,1.72,2.06,4.3,2.06,7.74v55.7c0,3.44-.69,6.02-2.06,7.74-1.38,1.72-2.98,2.58-4.81,2.58v1.72h39.19c4.81,0,9.57-.91,14.27-2.75,4.7-1.83,8.82-4.47,12.38-7.91,3.55-3.44,6.47-7.62,8.77-12.55,2.29-4.93,3.44-10.49,3.44-16.67Zm16.85,110.71c0-7.1-1.38-13.81-4.13-20.11-2.75-6.3-6.42-11.8-11-16.5-4.59-4.7-10.09-8.42-16.5-11.17-6.42-2.75-13.18-4.13-20.29-4.13h-42.98v1.72c1.83,0,3.44.86,4.81,2.58,1.38,1.72,2.06,4.3,2.06,7.74v80.11c0,3.44-.69,6.02-2.06,7.74-1.38,1.72-2.98,2.58-4.81,2.58v1.72h42.98c7.1,0,13.87-1.38,20.29-4.13,6.41-2.75,11.92-6.53,16.5-11.35,4.58-4.81,8.25-10.37,11-16.67,2.75-6.3,4.13-13.01,4.13-20.11Z" style="fill: #ae2d28;"/>
    <path d="m1408.24,127.21c0,17.42-3.27,33.75-9.8,48.99-6.53,15.25-15.47,28.54-26.82,39.88s-24.64,20.29-39.88,26.82c-15.25,6.53-31.58,9.8-48.99,9.8s-33.75-3.27-48.99-9.8c-15.25-6.53-28.54-15.47-39.88-26.82s-20.29-24.64-26.82-39.88c-6.53-15.24-9.8-31.57-9.8-48.99s3.27-33.75,9.8-48.99c6.53-15.24,15.47-28.54,26.82-39.88,11.35-11.35,24.64-20.28,39.88-26.82,15.24-6.53,31.57-9.8,48.99-9.8s33.75,3.27,48.99,9.8c15.24,6.53,28.54,15.47,39.88,26.82,11.35,11.35,20.29,24.64,26.82,39.88,6.53,15.25,9.8,31.58,9.8,48.99Zm-42.63,0c0-15.13-1.78-29.17-5.33-42.12-3.56-12.95-8.77-24.18-15.64-33.69-6.88-9.51-15.47-17.02-25.79-22.52s-22.35-8.25-36.1-8.25-25.44,2.75-35.76,8.25-18.97,13.01-25.96,22.52c-6.99,9.51-12.26,20.75-15.82,33.69-3.56,12.95-5.33,26.99-5.33,42.12s1.77,29.17,5.33,42.12c3.55,12.95,8.82,24.18,15.82,33.69,6.99,9.51,15.64,17.02,25.96,22.52s22.23,8.25,35.76,8.25,25.79-2.75,36.1-8.25,18.96-13.01,25.96-22.52c6.99-9.51,12.21-20.74,15.64-33.69,3.44-12.95,5.16-26.99,5.16-42.12Z" style="fill: #ae2d28;"/>
    <path d="m1704.26,127.21c0,17.42-3.27,33.75-9.8,48.99-6.53,15.25-15.47,28.54-26.82,39.88s-24.64,20.29-39.88,26.82c-15.25,6.53-31.58,9.8-48.99,9.8s-33.75-3.27-48.99-9.8c-15.25-6.53-28.54-15.47-39.88-26.82s-20.29-24.64-26.82-39.88c-6.53-15.24-9.8-31.57-9.8-48.99s3.27-33.75,9.8-48.99c6.53-15.24,15.47-28.54,26.82-39.88,11.35-11.35,24.64-20.28,39.88-26.82,15.24-6.53,31.57-9.8,48.99-9.8s33.75,3.27,48.99,9.8c15.24,6.53,28.54,15.47,39.88,26.82,11.35,11.35,20.29,24.64,26.82,39.88,6.53,15.25,9.8,31.58,9.8,48.99Zm-42.63,0c0-15.13-1.78-29.17-5.33-42.12-3.56-12.95-8.77-24.18-15.64-33.69-6.88-9.51-15.47-17.02-25.79-22.52s-22.35-8.25-36.1-8.25-25.44,2.75-35.76,8.25-18.97,13.01-25.96,22.52c-6.99,9.51-12.26,20.75-15.82,33.69-3.56,12.95-5.33,26.99-5.33,42.12s1.77,29.17,5.33,42.12c3.55,12.95,8.82,24.18,15.82,33.69,6.99,9.51,15.64,17.02,25.96,22.52s22.23,8.25,35.76,8.25,25.79-2.75,36.1-8.25,18.96-13.01,25.96-22.52c6.99-9.51,12.21-20.74,15.64-33.69,3.44-12.95,5.16-26.99,5.16-42.12Z" style="fill: #ae2d28;"/>
    <path d="m1961.43,247.89h-85.95v-5.16c3.66-.46,7.16-1.38,10.49-2.75,3.32-1.38,4.98-3.66,4.98-6.88,0-2.29-.81-4.35-2.41-6.19l-63.61-88.36c-1.15-1.6-2.58-2.46-4.3-2.58-1.72-.11-3.38.75-4.98,2.58l-11.35,12.38v1.72c1.14-1.14,2.12-1.49,2.92-1.03.8.46,1.2,1.72,1.2,3.78v59.82c0,5.04.63,9.23,1.89,12.55,1.26,3.33,2.92,6.02,4.98,8.08,2.06,2.06,4.35,3.61,6.88,4.64,2.52,1.03,5.04,1.78,7.56,2.23v5.16h-80.45v-5.16c2.52-.46,5.04-1.2,7.56-2.23,2.52-1.03,4.81-2.58,6.88-4.64s3.72-4.75,4.99-8.08c1.26-3.32,1.89-7.62,1.89-12.89V40.23c0-5.04-.63-9.28-1.89-12.72-1.26-3.44-2.92-6.19-4.99-8.25-2.06-2.06-4.36-3.61-6.88-4.64-2.53-1.03-5.04-1.77-7.56-2.23v-5.16h80.45v5.16c-2.52.46-5.04,1.2-7.56,2.23-2.53,1.03-4.81,2.58-6.88,4.64s-3.73,4.76-4.98,8.08c-1.26,3.33-1.89,7.62-1.89,12.89v68.07c0,4.36-.34,7.51-1.03,9.46-.69,1.95-1.72,3.84-3.09,5.67v1.72l89.39-94.2c2.29-2.29,3.44-4.93,3.44-7.91,0-3.44-1.49-5.96-4.47-7.56-2.98-1.6-6.19-2.63-9.63-3.09v-5.16h65.67v5.16c-3.67.69-7.39,2.23-11.17,4.64-3.78,2.41-7.45,5.1-11,8.08-3.56,2.98-6.94,6.13-10.14,9.46-3.21,3.33-5.96,6.25-8.25,8.77l-63.61,66.7,1.38,1.72c2.75-2.29,5.5-1.49,8.25,2.41l71.51,98.33c2.06,2.75,4.41,5.67,7.05,8.77,2.63,3.09,5.5,6.08,8.6,8.94,3.09,2.87,6.36,5.45,9.8,7.74,3.44,2.29,6.88,3.9,10.31,4.81v5.16Z" style="fill: #ae2d28;"/>
  </g>
</svg>