<?xml version="1.0" encoding="UTF-8"?>
<svg id="Layer_1" data-name="Layer 1" xmlns="http://www.w3.org/2000/svg" viewBox="0 0 1656.92 252.7">
  <path d="m258.58,249.44h-70.52v-4.9c3.7-.43,6.96-1.63,9.8-3.59,2.83-1.96,4.24-4.9,4.24-8.82v-4.41c0-1.85-.11-3.54-.33-5.06l-10.77-126.02c-.22-2.61-.22-5.11,0-7.51.21-2.39.87-4.78,1.96-7.18l-.33-3.92-73.46,174.67L48.32,65.62l-.33,3.92c1.52,3.48,2.07,8.16,1.63,14.04l-11.43,137.13c0,1.09-.11,2.94-.33,5.55-.22,2.61-.33,4.46-.33,5.55,0,3.71,1.36,6.59,4.08,8.65,2.72,2.07,5.82,3.43,9.31,4.08v4.9H0v-4.9c7.18-1.09,12.24-3.7,15.18-7.84,2.94-4.13,4.62-9.47,5.06-16l15.02-171.73c.22-4.13-.16-7.62-1.14-10.45-.98-2.83-2.45-5.11-4.41-6.86-1.96-1.74-4.14-3.05-6.53-3.92-2.4-.87-4.68-1.52-6.86-1.96v-4.9h53.55l62.36,163.9.98-2.28c-.44-1.74-.65-3.37-.65-4.9s.54-3.48,1.63-5.88L197.53,20.9h44.73v4.9c-6.31,1.09-11.26,3.59-14.86,7.51-3.59,3.92-4.95,10.01-4.08,18.28l14.69,171.41c.65,6.53,2.5,11.43,5.55,14.69,3.05,3.26,8.05,5.55,15.02,6.86v4.9Z" style="fill: #ffffff;"/>
  <path d="m461.94,152.14c0,2.4-.06,4.41-.16,6.04-.11,1.63-.16,2.67-.16,3.1h-132.55v1.96c3.3.65,4.94,3.26,4.94,7.84,0,9.79,1.52,18.61,4.57,26.44,3.05,7.84,7.23,14.48,12.57,19.92,5.33,5.44,11.64,9.63,18.94,12.57,7.29,2.94,15.29,4.41,24,4.41,18.94,0,35.59-5.01,49.95-15.02l.33,13.06c-8.71,7.18-17.74,12.36-27.1,15.51-9.36,3.15-19.92,4.73-31.67,4.73-11.1,0-21.93-2.4-32.49-7.18-10.56-4.79-19.9-11.31-28.01-19.59-8.12-8.27-14.65-17.96-19.59-29.06-4.94-11.1-7.41-22.96-7.41-35.59s2.25-24.49,6.75-35.59c4.5-11.1,10.64-20.78,18.42-29.06,7.78-8.27,16.73-14.8,26.85-19.59,10.12-4.78,20.84-7.18,32.16-7.18s22.53,2.02,32.32,6.04c9.79,4.03,18.23,9.69,25.3,16.98,7.07,7.29,12.51,16,16.32,26.12,3.81,10.12,5.71,21.17,5.71,33.14Zm-31.95-7.18c-1.31-.87-2.18-2.28-2.61-4.24-1.75-15.67-6.53-28.57-14.37-38.69-7.84-10.12-18.07-15.18-30.69-15.18-6.32,0-12.08,1.42-17.3,4.24-5.22,2.83-9.79,6.69-13.71,11.59-3.92,4.9-7.18,10.61-9.79,17.14s-4.46,13.5-5.55,20.9c-.22,1.96-.98,3.38-2.29,4.24h96.31Z" style="fill: #ffffff;"/>
  <path d="m677.47,238.66c-5.88,1.52-12.3,3.1-19.26,4.73-6.97,1.63-14.15,3.16-21.55,4.57-7.4,1.42-14.91,2.56-22.53,3.43-7.62.87-14.8,1.3-21.55,1.3-12.41,0-23.95-2.34-34.61-7.02-10.67-4.68-19.97-11.15-27.92-19.42-7.95-8.27-14.2-17.96-18.77-29.06-4.57-11.1-6.86-23.07-6.86-35.91s2.28-24.81,6.86-35.91c4.57-11.1,10.83-20.78,18.77-29.06,7.94-8.27,17.25-14.74,27.92-19.43,10.66-4.68,22.2-7.02,34.61-7.02,7.62,0,14.8.93,21.55,2.78,6.74,1.85,12.41,4.19,16.98,7.02v-1.96c-1.53-.87-2.72-2.01-3.59-3.43-.87-1.41-1.31-3.75-1.31-7.02v-24.49c0-2.17-.16-4.51-.49-7.02-.33-2.5-1.14-4.79-2.45-6.86-1.31-2.07-3.21-3.92-5.71-5.55-2.5-1.63-5.82-2.78-9.96-3.43v-4.9c3.27-1.09,7.13-2.34,11.59-3.76,4.46-1.41,9.09-2.83,13.88-4.24,4.78-1.41,9.47-2.72,14.04-3.92,4.57-1.19,8.49-2.12,11.75-2.77v206.99c0,4.79.54,8.77,1.63,11.92,1.09,3.16,2.5,5.77,4.24,7.84,1.74,2.07,3.7,3.65,5.88,4.73,2.17,1.09,4.46,1.75,6.86,1.96v4.9Zm-49.3-11.76c-1.31-.65-1.96-2.28-1.96-4.9v-112.32c0-2.83.65-4.78,1.96-5.88-3.7-5-8.65-9.09-14.86-12.24-6.2-3.15-13.11-4.73-20.73-4.73-8.71,0-16.32,1.91-22.85,5.71-6.53,3.81-11.97,9.09-16.32,15.84-4.36,6.75-7.62,14.64-9.79,23.67-2.18,9.03-3.27,18.88-3.27,29.55s1.09,20.52,3.27,29.55c2.17,9.04,5.49,16.87,9.96,23.51,4.46,6.64,9.96,11.81,16.49,15.51,6.53,3.7,14.04,5.55,22.53,5.55,6.74,0,13.22-.82,19.43-2.45,6.2-1.63,11.59-3.75,16.16-6.37Z" style="fill: #ffffff;"/>
  <path d="m787.81,249.44h-69.87v-4.9c5-.87,9.41-3.04,13.22-6.53,3.8-3.48,5.71-10.12,5.71-19.92v-101.86c0-9.8-1.91-16.43-5.71-19.92-3.81-3.48-8.22-5.66-13.22-6.53v-4.9c8.27-3.04,16.76-5.88,25.47-8.49,8.7-2.61,17.19-4.78,25.47-6.53v148.55c0,9.58,1.9,16.11,5.71,19.59,3.81,3.48,8.21,5.66,13.22,6.53v4.9Zm-15.34-226.91c0,6.32-2.12,11.59-6.37,15.84s-9.52,6.37-15.84,6.37-11.59-2.12-15.83-6.37-6.37-9.52-6.37-15.84,2.12-11.59,6.37-15.83c4.24-4.24,9.52-6.37,15.83-6.37s11.59,2.12,15.84,6.37c4.24,4.24,6.37,9.52,6.37,15.83Z" style="fill: #ffffff;"/>
  <path d="m1008.52,181.85c0,9.36-1.8,18.12-5.39,26.28s-8.44,15.29-14.53,21.39c-6.1,6.1-13.22,10.94-21.39,14.53s-16.93,5.39-26.28,5.39h-112.64v-4.9c2.39-.43,4.78-1.14,7.18-2.12,2.39-.98,4.57-2.45,6.53-4.41,1.96-1.96,3.54-4.52,4.73-7.67,1.19-3.15,1.8-7.23,1.8-12.24V51.91c0-4.78-.6-8.82-1.8-12.08-1.2-3.26-2.78-5.88-4.73-7.84s-4.14-3.37-6.53-4.24c-2.4-.87-4.79-1.52-7.18-1.96v-4.9h105.46c7.62,0,14.8,1.47,21.55,4.41,6.74,2.94,12.68,6.97,17.79,12.08,5.11,5.12,9.14,11.05,12.08,17.79,2.94,6.75,4.41,13.93,4.41,21.55,0,8.93-2.45,17.3-7.35,25.14s-10.83,13.93-17.79,18.28c6.53,2.4,12.51,5.66,17.96,9.8,5.44,4.14,10.12,8.93,14.04,14.36,3.92,5.44,6.91,11.38,8.98,17.79,2.07,6.42,3.1,13.01,3.1,19.75Zm-56.48-105.13c0-5-.93-9.79-2.77-14.36-1.85-4.57-4.41-8.6-7.67-12.08-3.26-3.48-7.13-6.25-11.59-8.33-4.46-2.07-9.31-3.1-14.53-3.1h-37.55v1.63c1.74,0,3.26.82,4.57,2.45,1.31,1.63,1.96,4.08,1.96,7.35v52.89c0,3.26-.65,5.71-1.96,7.35-1.31,1.63-2.83,2.45-4.57,2.45v1.63h37.22c4.57,0,9.09-.87,13.55-2.61,4.46-1.74,8.38-4.24,11.75-7.51,3.37-3.27,6.15-7.24,8.33-11.92,2.17-4.68,3.26-9.96,3.26-15.84Zm16,105.13c0-6.74-1.31-13.11-3.92-19.1-2.61-5.98-6.1-11.21-10.45-15.67-4.36-4.46-9.58-8-15.67-10.61-6.1-2.61-12.52-3.92-19.26-3.92h-40.81v1.63c1.74,0,3.26.82,4.57,2.45,1.31,1.63,1.96,4.08,1.96,7.35v76.07c0,3.26-.65,5.71-1.96,7.35-1.31,1.63-2.83,2.45-4.57,2.45v1.63h40.81c6.74,0,13.17-1.3,19.26-3.92,6.09-2.61,11.31-6.2,15.67-10.77,4.35-4.57,7.84-9.85,10.45-15.84,2.61-5.98,3.92-12.35,3.92-19.1Z" style="fill: #ffffff;"/>
  <path d="m1227.6,161.29c0,12.63-2.23,24.49-6.69,35.59-4.47,11.1-10.61,20.79-18.45,29.06-7.84,8.27-17.14,14.8-27.92,19.59-10.77,4.79-22.48,7.18-35.1,7.18s-24.32-2.4-35.1-7.18c-10.77-4.79-20.08-11.31-27.91-19.59-7.84-8.27-13.99-17.96-18.45-29.06-4.46-11.1-6.69-22.96-6.69-35.59s2.23-24.49,6.69-35.59c4.46-11.1,10.61-20.78,18.45-29.06,7.84-8.27,17.14-14.8,27.91-19.59,10.77-4.78,22.47-7.18,35.1-7.18s24.32,2.4,35.1,7.18c10.77,4.79,20.08,11.32,27.92,19.59,7.84,8.27,13.98,17.96,18.45,29.06,4.46,11.1,6.69,22.96,6.69,35.59Zm-35.92,0c0-10.01-1.03-19.53-3.1-28.57-2.07-9.03-5.28-16.98-9.63-23.83-4.36-6.86-9.8-12.24-16.33-16.16-6.53-3.92-14.26-5.88-23.18-5.88s-16.71,1.96-23.34,5.88c-6.64,3.92-12.08,9.31-16.33,16.16s-7.4,14.81-9.47,23.83c-2.07,9.04-3.1,18.56-3.1,28.57s1.03,19.81,3.1,28.73c2.07,8.93,5.22,16.82,9.47,23.67s9.68,12.24,16.33,16.16c6.64,3.92,14.42,5.88,23.34,5.88s16.7-1.96,23.34-5.88c6.64-3.92,12.08-9.31,16.32-16.16s7.4-14.74,9.47-23.67c2.07-8.92,3.1-18.5,3.1-28.73Z" style="fill: #ffffff;"/>
  <path d="m1446.66,161.29c0,12.63-2.23,24.49-6.69,35.59-4.46,11.1-10.61,20.79-18.45,29.06-7.84,8.27-17.14,14.8-27.91,19.59-10.78,4.79-22.48,7.18-35.1,7.18s-24.32-2.4-35.1-7.18c-10.77-4.79-20.08-11.31-27.91-19.59-7.84-8.27-13.99-17.96-18.45-29.06-4.46-11.1-6.69-22.96-6.69-35.59s2.23-24.49,6.69-35.59c4.46-11.1,10.61-20.78,18.45-29.06,7.84-8.27,17.14-14.8,27.91-19.59,10.78-4.78,22.47-7.18,35.1-7.18s24.32,2.4,35.1,7.18c10.77,4.79,20.08,11.32,27.91,19.59,7.84,8.27,13.98,17.96,18.45,29.06,4.46,11.1,6.69,22.96,6.69,35.59Zm-35.91,0c0-10.01-1.04-19.53-3.1-28.57-2.07-9.03-5.28-16.98-9.63-23.83-4.36-6.86-9.8-12.24-16.32-16.16-6.53-3.92-14.26-5.88-23.18-5.88s-16.71,1.96-23.34,5.88c-6.64,3.92-12.08,9.31-16.33,16.16-4.24,6.86-7.4,14.81-9.47,23.83-2.07,9.04-3.1,18.56-3.1,28.57s1.03,19.81,3.1,28.73c2.07,8.93,5.22,16.82,9.47,23.67,4.24,6.86,9.68,12.24,16.33,16.16,6.63,3.92,14.41,5.88,23.34,5.88s16.7-1.96,23.34-5.88c6.64-3.92,12.08-9.31,16.32-16.16s7.4-14.74,9.47-23.67c2.07-8.92,3.1-18.5,3.1-28.73Z" style="fill: #ffffff;"/>
  <path d="m1656.92,249.76h-36.89c-4.79,0-8.6-.76-11.43-2.29-2.83-1.52-5.77-4.46-8.82-8.81l-48-71.17c-1.96-3.05-4.46-3.05-7.51,0l-7.51,7.51c.87.65,1.47,1.36,1.8,2.12.33.77.49,2.01.49,3.75v37.55c0,9.58,1.85,16.11,5.55,19.59,3.7,3.48,8.05,5.66,13.06,6.53v4.9h-69.87v-4.9c5-.87,9.35-3.04,13.06-6.53,3.7-3.48,5.55-10.12,5.55-19.92V44.73c0-4.79-.49-8.7-1.47-11.75-.98-3.05-2.34-5.5-4.08-7.35-1.75-1.85-3.76-3.15-6.04-3.92-2.28-.76-4.63-1.36-7.02-1.8v-4.9c3.26-1.09,7.13-2.34,11.59-3.76,4.46-1.41,9.09-2.83,13.88-4.24,4.78-1.41,9.47-2.72,14.04-3.92,4.57-1.19,8.49-2.23,11.75-3.1v143c0,3.05-.38,5.55-1.14,7.51-.77,1.96-1.8,3.7-3.1,5.22v1.96l64.32-63.99c2.39-2.39,3.59-5,3.59-7.84,0-2.61-1.14-4.52-3.43-5.71-2.29-1.2-5.28-2.01-8.98-2.45v-4.57h56.48v4.57c-3.27.65-6.48,1.96-9.63,3.92-3.16,1.96-6.26,4.19-9.3,6.69-3.05,2.5-5.93,5.12-8.65,7.84l-7.35,7.35-41.46,41.46,1.31,1.31c2.61-1.96,4.9-1.2,6.86,2.28l49.3,73.14c3.26,5.01,7.4,9.74,12.41,14.2,5,4.46,10.56,7.56,16.65,9.3v4.57Z" style="fill: #ffffff;"/>
</svg>