<?xml version="1.0" encoding="UTF-8"?>
<svg id="Layer_1" data-name="Layer 1" xmlns="http://www.w3.org/2000/svg" viewBox="0 0 30 30">
  <defs>
    <style>
      .cls-1 {
        fill: #af2d29;
      }

      .cls-1, .cls-2, .cls-3 {
        stroke-width: 0px;
      }

      .cls-2 {
        fill: #fff;
      }

      .cls-3 {
        fill: #010101;
      }
    </style>
  </defs>
  <circle class="cls-2" cx="15" cy="15" r="15"/>
  <g>
    <rect class="cls-1" x="3.85" y="3.88" width="22.31" height="22.23" rx="11.12" ry="11.12"/>
    <g>
      <path class="cls-3" d="m26.25,24.3h-5.79v-.4c.3-.04.57-.13.8-.29.23-.16.35-.4.35-.72v-.36c0-.15,0-.29-.03-.42l-.88-10.34c-.02-.21-.02-.42,0-.62.02-.2.07-.39.16-.59l-.03-.32-6.03,14.34-5.82-15.36-.03.32c.12.29.17.67.13,1.15l-.94,11.26c0,.09,0,.24-.03.46-.02.21-.03.37-.03.46,0,.3.11.54.34.71.22.17.48.28.76.33v.4h-4.18v-.4c.59-.09,1-.3,1.25-.64.24-.34.38-.78.42-1.31l1.23-14.1c.02-.34-.01-.63-.09-.86-.08-.23-.2-.42-.36-.56-.16-.14-.34-.25-.54-.32-.2-.07-.38-.12-.56-.16v-.4h4.4l5.12,13.45.08-.19c-.04-.14-.05-.28-.05-.4s.04-.29.13-.48l5.2-12.38h3.67v.4c-.52.09-.92.29-1.22.62-.29.32-.41.82-.33,1.5l1.21,14.07c.05.54.21.94.46,1.21.25.27.66.46,1.23.56v.4Z"/>
      <path class="cls-2" d="m25.17,23.87h-5.79v-.4c.3-.04.57-.13.8-.29.23-.16.35-.4.35-.72v-.36c0-.15,0-.29-.03-.42l-.88-10.34c-.02-.21-.02-.42,0-.62.02-.2.07-.39.16-.59l-.03-.32-6.03,14.34-5.82-15.36-.03.32c.12.29.17.67.13,1.15l-.94,11.26c0,.09,0,.24-.03.46-.02.21-.03.37-.03.46,0,.3.11.54.34.71.22.17.48.28.76.33v.4H3.95v-.4c.59-.09,1-.3,1.25-.64.24-.34.38-.78.42-1.31l1.23-14.1c.02-.34-.01-.63-.09-.86-.08-.23-.2-.42-.36-.56-.16-.14-.34-.25-.54-.32-.2-.07-.38-.12-.56-.16v-.4h4.4l5.12,13.45.08-.19c-.04-.14-.05-.28-.05-.4s.04-.29.13-.48l5.2-12.38h3.67v.4c-.52.09-.92.29-1.22.62-.29.32-.41.82-.33,1.5l1.21,14.07c.05.54.21.94.46,1.21.25.27.66.46,1.23.56v.4Z"/>
    </g>
  </g>
</svg>