<?xml version="1.0" encoding="UTF-8"?><svg id="Layer_1" xmlns="http://www.w3.org/2000/svg" viewBox="0 0 6914.23 1620.94"><g><g><path d="M240.45,1272.43c-27.75-21.99-44.83-54.79-43.99-84.58,.15-5.31,.59-20.73,8.52-23.98,6.52-2.67,15.1,4.1,20.19,8.11,11.27,8.88,13.12,16.64,22.24,28.02,7.94,9.9,15.7,15.44,24.37,21.64,13.25,9.47,17.37,8.93,51.62,24.77,20.62,9.53,23.99,11.98,35.14,15.11,11.29,3.17,32.68,9.19,38.56,.97,4.64-6.49-2.44-19.03-6.02-25.38-8.72-15.45-16.59-16.88-28.52-30.3-4.81-5.41-22.11-24.87-22.54-50.33-.06-3.79-.44-25.94,11.99-32.29,7.97-4.07,18.13-.07,29.95,6.6,20.53,11.59,59.69,33.7,82.05,86.81,9.78,23.23,19.03,45.19,8.93,64.9-9.72,18.98-32.07,25.51-47.53,30.03-23.43,6.85-42.39,4.58-68.01,1.51-17.63-2.11-41.46-6.63-68.36-17.01-21.49-8.3-34.22-13.21-48.6-24.6Z" style="fill:#fff;"/><path d="M197.5,846.88c-4.53,64.63-1.06,74.75-9.69,101.79-6.1,19.09-10.41,31.72-21.76,36.3-15.91,6.42-33.54-6.63-52.17-20.41-6.61-4.89-27.81-21.37-46.3-52.52-6.75-11.38-12.01-25.8-22.54-54.65-2.97-8.14-17.73-49.43-14.09-80.09,.83-6.98,2.7-14.18,8.29-17.27,5.52-3.06,12.14-.72,13.69-.12,11.75,4.55,16.42,19.36,22.28,39.32,15.27,52.07,17.68,66.04,30.58,77.57,8.26,7.38,17.32,10.65,23.08,12.22,1.14-24.15,1.91-41.32,2.28-49.52,1.09-24.47,2.52-36.21,6.32-52.76,1.6-6.94,5.74-23.89,19.82-32.43,2.68-1.63,10.3-6.25,18.77-3.95,1.94,.52,7.56,2.4,13.45,11.41,7.99,12.21,8.4,25.19,8.52,40.35,.26,33.41-.53,44.78-.53,44.78Z" style="fill:#fff;"/><path d="M239.41,1086.5c-17.69-39.08-21.65-76.24-18.16-114.41,.68-7.44,2.16-15.06,4.78-22.03,5.74-15.28,14.37-16.85,25.88-5.16,7.81,7.93,14.03,17.19,18.22,27.44,18.8,45.98,32.18,93.41,34.82,143.25,2.53,47.61-12.66,58.92-56.44,41.68-50.08-19.72-97.09-44.78-133.89-85.44-12.24-13.52-21.32-29.12-25.08-47.15-1.61-7.71-4.26-16.89,3.87-22.48,7.28-5.01,14.66-.25,21.14,3.4,20.32,11.43,38.2,26.38,56.89,40.17,20.34,15.02,40.37,30.65,67.96,40.72Z" style="fill:#fff;"/><path d="M206.82,369.33c-5.41,28.99-17.05,52.65-17.05,52.65-26.56,53.97-58.01,82.29-63.82,89.02-23.73,27.47-47.53,24.05-63.75-8.77-9.85-19.94-14.3-41.73-17.6-63.59-6.82-45.1-7.8-90.22,.71-135.28,2.18-11.55,6.49-22.29,11.67-32.71,2.51-5.05,4.29-12.53,11.14-11.79,7.59,.82,8.52,8.88,9.54,14.9,2.62,15.45,4.87,31,6.51,46.58,2.75,26,4.89,52.08,10.67,77.64,1.98,8.75,.69,22.04,9.5,24.26,8.61,2.17,14.61-9.74,20.98-16.23,19.93-20.3,36.74-43.64,58.98-61.66,2.47-2,7.19-9.02,13.67-8.67,4.61,.25,7.68,3.87,7.89,4.13,1.78,2.17,2.65,5,2.17,15.54-.3,6.56-.45,9.83-1.23,13.97Z" style="fill:#fff;"/><path d="M.03,548.31c.02-4.38-.28-3.84,.62-16.1,1.48-20.23,.09-27.22,5.08-34.16,1.38-1.92,3.84-5.25,7.97-6.17,6.08-1.36,11.76,3.45,13.64,5.04,8.13,6.89,5.7,16.53,15.05,48.12,3.45,11.67,6.49,23.47,9.71,35.22,1.61,5.86,4.28,11.02,8.29,15.22,.05,.05,.11,.12,.19,.2,2.09,2.15,4.19,3.68,5.04,4.21,2.74,1.67,7.1,1.79,10.42,1.08,5.92-1.26,9.37-5.32,10.78-7.02,3.08-3.73,3.64-6.83,5.03-10.43,4.12-10.67,12.21-17.11,15.36-19.62,2.69-2.14,10.63-8.31,22.45-9.96,5.46-.76,12.18-1.7,17.86,1.9,7.07,4.49,8.75,13.63,9.59,19.83,5,36.9-4.22,72.6-4.22,72.6-5.97,23.12-11.25,42.7-27.65,61.84-7.82,9.13-16.49,18.96-29.31,19.84-3.1,.21-14.98,.54-35.47-19.35-6.51-6.31-20.79-21.36-35.61-53.48,0,0-25.02-54.24-24.81-108.81Z" style="fill:#fff;"/><path d="M98.73,176.15s10.75-27.47,30.97-39.94c10.92-6.73,17.67-3.06,19.58,9.26,2.15,13.89,.08,27.79-.52,41.71-.79,18.55-.6,37.15-1.21,55.71-.38,11.69,4.18,13.86,13.08,7.15,21.78-16.42,43.2-33.33,65.03-49.69,10.66-7.99,21.82-15.35,32.96-22.67,3.39-2.23,7.91-3.7,11.56-1.2,4.73,3.23,3.38,8.49,1.67,12.72-20.4,50.31-47.51,95.99-93.75,126.93-15.11,10.11-31.81,15.44-47.39,9.63-18.71-6.97-25.76-28.56-32.64-49.63-4-12.26-16.24-54.65,.66-99.97Z" style="fill:#fff;"/><path d="M299.2,21.3c-.09,9.34-1.77,78.68-52.61,130.46,0,0-18.87,19.22-51.92,29.53-4.08,1.27-9.2,2.3-12.3-.31-3.36-2.82-2.84-8.6-2.53-11.32,6.2-54.72,21.17-81.72,21.17-81.72,8.33-15.02,23.42-37.93,49.38-60.13,4.12-4.08,10.54-9.98,19.14-16.17,10.92-7.86,19.34-13.79,24.22-10.87,4.44,2.66,5.37,12.22,5.43,15.38,.02,1.18,.04,2.98,.02,5.16Z" style="fill:#fff;"/><path d="M457.44,1402.85c22.72-3.25,90.77-26.07,114.98-33.4,53.93-16.32,82.85-25.24,109.32-11.56,24.29,12.55,35.64,38.45,41.14,56.55-110.4,.14-220.8,.28-331.2,.43-.46-1.07-1-2.79-.24-4.13,1.11-1.97,4.38-1.96,5.77-2.03,5.7-.28,12.7-.78,21.77-1.52,5.15-.43,11.7-1.04,19.28-1.9,0,0,9.72-1.1,19.19-2.45Z" style="fill:#fff;"/><path d="M806.54,1451.97s.61,.04,1.2,.08c5.47,.39,26.09,2.27,44.35,11.27,14.32,7.06,27.05,17.42,38.43,31.25,28.03,34.06,56.08,68.05,81.92,103.81,3.64,5.03,9.69,10.84,7.53,16.86-.57,1.6-1.57,2.76-1.99,3.02-3.85,2.41-12.4,2.34-15.3,2.34-19.85,0-33.41,1.75-46.06-2.78-24.42-8.74-23.27-46.12-38.93-80.48-10.73-23.55-33.59-54.96-88.65-81.67,.31-.31,.66-.56,1.04-.82,0,0,.61-.43,1.29-.81,2.96-1.63,7.13-2.13,7.13-2.13,2.39-.29,4.37-.17,8.04,.05Z" style="fill:#fff;"/><path d="M1286.73,1272.43c27.75-21.99,44.83-54.79,43.99-84.58-.15-5.31-.59-20.73-8.52-23.98-6.52-2.67-15.1,4.1-20.19,8.11-11.27,8.88-13.12,16.64-22.24,28.02-7.94,9.9-15.7,15.44-24.37,21.64-13.25,9.47-17.37,8.93-51.62,24.77-20.62,9.53-23.99,11.98-35.14,15.11-11.29,3.17-32.68,9.19-38.56,.97-4.64-6.49,2.44-19.03,6.02-25.38,8.72-15.45,16.59-16.88,28.52-30.3,4.81-5.41,22.11-24.87,22.54-50.33,.06-3.79,.44-25.94-11.99-32.29-7.97-4.07-18.13-.07-29.95,6.6-20.53,11.59-59.69,33.7-82.05,86.81-9.78,23.23-19.03,45.19-8.93,64.9,9.72,18.98,32.07,25.51,47.53,30.03,23.43,6.85,42.39,4.58,68.01,1.51,17.63-2.11,41.46-6.63,68.36-17.01,21.49-8.3,34.22-13.21,48.6-24.6Z" style="fill:#fff;"/><path d="M1329.68,846.88c4.53,64.63,1.06,74.75,9.69,101.79,6.1,19.09,10.41,31.72,21.76,36.3,15.91,6.42,33.54-6.63,52.17-20.41,6.61-4.89,27.81-21.37,46.3-52.52,6.75-11.38,12.01-25.8,22.54-54.65,2.97-8.14,17.73-49.43,14.09-80.09-.83-6.98-2.7-14.18-8.29-17.27-5.52-3.06-12.14-.72-13.69-.12-11.75,4.55-16.42,19.36-22.28,39.32-15.27,52.07-17.68,66.04-30.58,77.57-8.26,7.38-17.32,10.65-23.08,12.22-1.14-24.15-1.91-41.32-2.28-49.52-1.09-24.47-2.52-36.21-6.32-52.76-1.6-6.94-5.74-23.89-19.82-32.43-2.68-1.63-10.3-6.25-18.77-3.95-1.94,.52-7.56,2.4-13.45,11.41-7.99,12.21-8.4,25.19-8.52,40.35-.26,33.41,.53,44.78,.53,44.78Z" style="fill:#fff;"/><path d="M1287.77,1086.5c17.69-39.08,21.65-76.24,18.16-114.41-.68-7.44-2.16-15.06-4.78-22.03-5.74-15.28-14.37-16.85-25.88-5.16-7.81,7.93-14.03,17.19-18.22,27.44-18.8,45.98-32.18,93.41-34.82,143.25-2.53,47.61,12.66,58.92,56.44,41.68,50.08-19.72,97.09-44.78,133.89-85.44,12.24-13.52,21.32-29.12,25.08-47.15,1.61-7.71,4.26-16.89-3.87-22.48-7.28-5.01-14.66-.25-21.14,3.4-20.32,11.43-38.2,26.38-56.89,40.17-20.34,15.02-40.37,30.65-67.96,40.72Z" style="fill:#fff;"/><path d="M1320.36,369.33c5.41,28.99,17.05,52.65,17.05,52.65,26.56,53.97,58.01,82.29,63.82,89.02,23.73,27.47,47.53,24.05,63.75-8.77,9.85-19.94,14.3-41.73,17.6-63.59,6.82-45.1,7.8-90.22-.71-135.28-2.18-11.55-6.49-22.29-11.67-32.71-2.51-5.05-4.29-12.53-11.14-11.79-7.59,.82-8.52,8.88-9.54,14.9-2.62,15.45-4.87,31-6.51,46.58-2.75,26-4.89,52.08-10.67,77.64-1.98,8.75-.69,22.04-9.5,24.26-8.61,2.17-14.61-9.74-20.98-16.23-19.93-20.3-36.74-43.64-58.98-61.66-2.47-2-7.19-9.02-13.67-8.67-4.61,.25-7.68,3.87-7.89,4.13-1.78,2.17-2.65,5-2.17,15.54,.3,6.56,.45,9.83,1.23,13.97Z" style="fill:#fff;"/><path d="M1527.15,548.31c-.02-4.38,.28-3.84-.62-16.1-1.48-20.23-.09-27.22-5.08-34.16-1.38-1.92-3.84-5.25-7.97-6.17-6.08-1.36-11.76,3.45-13.64,5.04-8.13,6.89-5.7,16.53-15.05,48.12-3.45,11.67-6.49,23.47-9.71,35.22-1.61,5.86-4.28,11.02-8.29,15.22-.05,.05-.11,.12-.19,.2-2.09,2.15-4.19,3.68-5.04,4.21-2.74,1.67-7.1,1.79-10.42,1.08-5.92-1.26-9.37-5.32-10.78-7.02-3.08-3.73-3.64-6.83-5.03-10.43-4.12-10.67-12.21-17.11-15.36-19.62-2.69-2.14-10.63-8.31-22.45-9.96-5.46-.76-12.18-1.7-17.86,1.9-7.07,4.49-8.75,13.63-9.59,19.83-5,36.9,4.22,72.6,4.22,72.6,5.97,23.12,11.25,42.7,27.65,61.84,7.82,9.13,16.49,18.96,29.31,19.84,3.1,.21,14.98,.54,35.47-19.35,6.51-6.31,20.79-21.36,35.61-53.48,0,0,25.02-54.24,24.81-108.81Z" style="fill:#fff;"/><path d="M1428.45,176.15s-10.75-27.47-30.97-39.94c-10.92-6.73-17.67-3.06-19.58,9.26-2.15,13.89-.08,27.79,.52,41.71,.79,18.55,.6,37.15,1.21,55.71,.38,11.69-4.18,13.86-13.08,7.15-21.78-16.42-43.2-33.33-65.03-49.69-10.66-7.99-21.82-15.35-32.96-22.67-3.39-2.23-7.91-3.7-11.56-1.2-4.73,3.23-3.38,8.49-1.67,12.72,20.4,50.31,47.51,95.99,93.75,126.93,15.11,10.11,31.81,15.44,47.39,9.63,18.71-6.97,25.76-28.56,32.64-49.63,4-12.26,16.24-54.65-.66-99.97Z" style="fill:#fff;"/><path d="M1227.98,21.3c.09,9.34,1.77,78.68,52.61,130.46,0,0,18.87,19.22,51.92,29.53,4.08,1.27,9.2,2.3,12.3-.31,3.36-2.82,2.84-8.6,2.53-11.32-6.2-54.72-21.17-81.72-21.17-81.72-8.33-15.02-23.42-37.93-49.38-60.13-4.12-4.08-10.54-9.98-19.14-16.17-10.92-7.86-19.34-13.79-24.22-10.87-4.44,2.66-5.37,12.22-5.43,15.38-.02,1.18-.04,2.98-.02,5.16Z" style="fill:#fff;"/><path d="M1069.74,1402.85c-22.72-3.25-90.77-26.07-114.98-33.4-53.93-16.32-82.85-25.24-109.32-11.56-24.29,12.55-35.64,38.45-41.14,56.55,110.4,.14,220.8,.28,331.2,.43,.46-1.07,1-2.79,.24-4.13-1.11-1.97-4.38-1.96-5.77-2.03-5.7-.28-12.7-.78-21.77-1.52-5.15-.43-11.7-1.04-19.28-1.9,0,0-9.72-1.1-19.19-2.45Z" style="fill:#fff;"/><path d="M720.64,1451.97s-.61,.04-1.2,.08c-5.47,.39-26.09,2.27-44.35,11.27-14.32,7.06-27.05,17.42-38.43,31.25-28.03,34.06-56.08,68.05-81.92,103.81-3.64,5.03-9.69,10.84-7.53,16.86,.57,1.6,1.57,2.76,1.99,3.02,3.85,2.41,12.4,2.34,15.3,2.34,19.85,0,33.41,1.75,46.06-2.78,24.42-8.74,23.27-46.12,38.93-80.48,10.73-23.55,33.59-54.96,88.65-81.67-.31-.31-.66-.56-1.04-.82,0,0-.61-.43-1.29-.81-2.96-1.63-7.13-2.13-7.13-2.13-2.39-.29-4.37-.17-8.04,.05Z" style="fill:#fff;"/></g><g><rect x="420.53" y="443.04" width="314.93" height="338.53" rx="69.27" ry="69.27" style="fill:#fff;"/><g><rect x="577.83" y="721.47" width="105.52" height="338.53" rx="51.52" ry="51.52" style="fill:#fff;"/><rect x="472.64" y="725.09" width="105.52" height="338.53" rx="51.52" ry="51.52" style="fill:#fff;"/></g><rect x="510.49" y="310.93" width="135" height="135" rx="63.67" ry="63.67" style="fill:#fff;"/></g><g><rect x="791.72" y="443.04" width="314.93" height="338.53" rx="69.27" ry="69.27" style="fill:#fff;"/><g><rect x="949.03" y="721.47" width="105.52" height="338.53" rx="51.52" ry="51.52" style="fill:#fff;"/><rect x="843.83" y="725.09" width="105.52" height="338.53" rx="51.52" ry="51.52" style="fill:#fff;"/></g><rect x="881.69" y="310.93" width="135" height="135" rx="63.67" ry="63.67" style="fill:#fff;"/></g></g><g><g><path d="M1958.55,1247.24v276.05h-20.88v-145.97c0-29.06,.68-53.57,2.04-78.09l-1.36-.45c-6.13,19.75-15.44,46.08-24.29,72.64l-29.06,86.72h-20.88l-29.06-86.72c-8.85-26.33-18.16-52.89-24.29-72.64l-1.36,.45c1.36,24.52,2.04,48.81,2.04,78.09v145.97h-20.89v-276.05h22.25l42.22,119.18c6.13,17.71,14.53,46.08,18.84,61.52h1.36c4.31-15.44,12.94-43.81,18.84-61.52l42.22-119.18h22.25Z" style="fill:#fff;"/><path d="M2138.12,1459.72c-2.72,43.36-24.06,67.42-60.39,67.42s-56.98-26.33-56.98-73.78v-68.1c0-47.22,23.38-73.78,58.12-73.78s59.02,26.33,59.02,73.78v45.86h-96.93v22.47c0,34.73,14.07,50.85,37.46,50.85,24.97,0,37.23-14.07,39.95-44.49l19.75-.23h0Zm-97.16-74.46v24.06h76.96v-24.06c0-34.73-14.53-50.85-38.82-50.85s-38.14,16.12-38.14,50.85Z" style="fill:#fff;"/><path d="M2306.79,1237.71v285.58h-16.12l-2.72-19.3c-9.53,15.44-24.74,24.06-41.77,24.06-32.01,0-54.94-26.79-54.94-79.23v-59.48c0-51.3,20.88-77.64,54.94-77.64,15.89,0,31.33,7.49,41.32,23.16v-96.93l19.3-.23h0Zm-19.75,211.8v-60.39c0-33.14-14.53-56.07-36.78-56.07-25.88,0-39.27,16.57-39.27,56.07v59.48c0,40.64,14.53,57.66,39.27,57.66,20.43,0,36.78-18.16,36.78-56.75h0Z" style="fill:#fff;"/><path d="M2363.09,1259.05c0-11.35,6.36-18.84,16.12-18.84s16.12,7.49,16.12,18.84-6.36,18.84-16.12,18.84-16.12-7.49-16.12-18.84Zm6.36,57.21h19.98v207.03h-19.98v-207.03Z" style="fill:#fff;"/><path d="M2523.59,1503.08v22.02h-10.22c-32.46,0-50.4-23.61-50.4-63.56v-123.72h-27.01v-21.57h27.01v-47.67h19.98v47.67h36.55v21.57h-36.55v123.72c0,27.24,9.53,41.32,30.42,41.32l10.22,.23h0Z" style="fill:#fff;"/><path d="M2684.54,1459.72c-2.72,43.36-24.06,67.42-60.39,67.42s-56.98-26.33-56.98-73.78v-68.1c0-47.22,23.38-73.78,58.12-73.78s59.02,26.33,59.02,73.78v45.86h-96.93v22.47c0,34.73,14.07,50.85,37.46,50.85,24.97,0,37.23-14.07,39.95-44.49l19.75-.23h0Zm-97.16-74.46v24.06h76.96v-24.06c0-34.73-14.53-50.85-38.82-50.85s-38.14,16.12-38.14,50.85Z" style="fill:#fff;"/><path d="M2825.74,1313.76v25.2c-6.36-2.72-13.39-4.31-22.25-4.31-25.43,0-41.77,23.61-41.77,63.11v125.31h-19.98v-207.03h16.57l3.41,26.11v.45c9.08-18.62,24.29-30.65,46.31-30.65,6.58,0,12.26,.23,17.71,1.82h0Z" style="fill:#fff;"/><path d="M2955.82,1313.76v25.2c-6.36-2.72-13.39-4.31-22.25-4.31-25.43,0-41.77,23.61-41.77,63.11v125.31h-19.98v-207.03h16.57l3.41,26.11v.45c9.08-18.62,24.29-30.65,46.31-30.65,6.58,0,12.26,.23,17.71,1.82h0Z" style="fill:#fff;"/><path d="M3105.42,1380.04v143.02h-17.25l-1.59-19.75c-9.08,14.98-22.7,24.52-40.86,24.52-32.46,0-56.07-23.16-56.07-63.56s22.02-61.97,60.84-61.97h35.19v-22.02c0-30.42-12.26-46.54-35.19-46.54-20.2,0-34.05,13.39-35.41,36.32h-19.98c1.36-35.41,23.38-58.8,56.07-58.8s54.26,26.56,54.26,68.78h0Zm-19.98,80.82v-36.55h-35.87c-25.88,0-39.95,14.07-39.95,40.64s15.89,40.18,38.82,40.18,37-16.57,37-44.27h0Z" style="fill:#fff;"/><path d="M3281.58,1390.71v132.58h-19.98v-128.94c0-41.77-9.53-60.84-32.69-60.84-24.74,0-40.86,24.06-40.86,64.24v125.31h-19.98v-207.03h16.57l3.41,25.65c9.08-18.62,24.29-30.42,45.86-30.42,28.83,.23,47.67,22.7,47.67,79.45h0Z" style="fill:#fff;"/><path d="M3455.7,1459.72c-2.72,43.36-24.06,67.42-60.39,67.42s-56.98-26.33-56.98-73.78v-68.1c0-47.22,23.38-73.78,58.12-73.78s59.02,26.33,59.02,73.78v45.86h-96.93v22.47c0,34.73,14.07,50.85,37.46,50.85,24.97,0,37.23-14.07,39.95-44.49l19.75-.23h0Zm-97.39-74.46v24.06h76.96v-24.06c0-34.73-14.53-50.85-38.82-50.85s-38.14,16.12-38.14,50.85Z" style="fill:#fff;"/><path d="M3619.15,1380.04v143.02h-17.25l-1.59-19.75c-9.08,14.98-22.7,24.52-40.86,24.52-32.46,0-56.07-23.16-56.07-63.56s22.02-61.97,60.84-61.97h35.19v-22.02c0-30.42-12.26-46.54-35.19-46.54-20.2,0-34.05,13.39-35.41,36.32h-19.98c1.36-35.41,23.38-58.8,56.07-58.8s54.26,26.56,54.26,68.78h0Zm-19.98,80.82v-36.55h-35.87c-25.88,0-39.95,14.07-39.95,40.64s15.89,40.18,38.82,40.18,37-16.57,37-44.27h0Z" style="fill:#fff;"/><path d="M3795.31,1390.71v132.58h-19.98v-128.94c0-41.77-9.53-60.84-32.69-60.84-24.74,0-40.86,24.06-40.86,64.24v125.31h-19.98v-207.03h16.57l3.41,25.65c9.08-18.62,24.29-30.42,45.86-30.42,28.83,.23,47.67,22.7,47.67,79.45h0Z" style="fill:#fff;"/><path d="M4123.57,1247.24v276.05h-20.88v-145.97c0-29.06,.68-53.57,2.04-78.09l-1.36-.45c-6.13,19.75-15.44,46.08-24.29,72.64l-29.06,86.72h-20.88l-29.06-86.72c-8.85-26.33-18.16-52.89-24.29-72.64l-1.36,.45c1.36,24.52,2.04,48.81,2.04,78.09v145.97h-20.88v-276.05h22.25l42.22,119.18c6.13,17.71,14.53,46.08,18.84,61.52h1.36c4.31-15.44,12.94-43.81,18.84-61.52l42.22-119.18h22.25Z" style="fill:#fff;"/><path d="M4185.77,1452.91v-66.51c0-48.58,23.61-74.91,59.02-74.91s59.02,26.33,59.02,74.91v66.51c0,48.58-23.61,74.91-59.02,74.91s-59.02-26.33-59.02-74.91Zm97.84,0v-66.51c0-35.87-14.98-51.99-38.82-51.99s-38.82,16.12-38.82,51.99v66.51c0,35.87,14.98,51.99,38.82,51.99s38.82-15.89,38.82-51.99Z" style="fill:#fff;"/><path d="M4473.85,1237.71v285.58h-16.12l-2.72-19.3c-9.53,15.44-24.74,24.06-41.77,24.06-32.01,0-54.94-26.79-54.94-79.23v-59.48c0-51.3,20.88-77.64,54.94-77.64,15.89,0,31.33,7.49,41.09,23.16v-96.93l19.52-.23h0Zm-19.75,211.8v-60.39c0-33.14-14.53-56.07-36.78-56.07-25.88,0-39.27,16.57-39.27,56.07v59.48c0,40.64,14.53,57.66,39.27,57.66,20.2,0,36.78-18.16,36.78-56.75h0Z" style="fill:#fff;"/><path d="M4649.78,1459.72c-2.72,43.36-24.06,67.42-60.39,67.42s-56.98-26.33-56.98-73.78v-68.1c0-47.22,23.38-73.78,58.12-73.78s59.02,26.33,59.02,73.78v45.86h-96.93v22.47c0,34.73,14.07,50.85,37.46,50.85,24.97,0,37.23-14.07,39.95-44.49l19.75-.23h0Zm-97.39-74.46v24.06h76.96v-24.06c0-34.73-14.53-50.85-38.82-50.85s-38.14,16.12-38.14,50.85h0Z" style="fill:#fff;"/><path d="M4707.67,1238.16h19.98v285.13h-19.98v-285.13Z" style="fill:#fff;"/><path d="M4887.01,1442.7v-195.46h20.88v195.68c0,41.77,17.93,60.39,43.59,60.39s43.59-18.62,43.59-60.39v-195.68h20.88v195.68c0,55.16-26.79,83.99-64.47,83.99s-64.47-28.83-64.47-84.22Z" style="fill:#fff;"/><path d="M5192.34,1390.71v132.58h-19.98v-128.94c0-41.77-9.53-60.84-32.69-60.84-24.74,0-40.86,24.06-40.86,64.24v125.31h-19.98v-207.03h16.57l3.41,25.65c9.08-18.62,24.29-30.42,45.86-30.42,28.83,.23,47.67,22.7,47.67,79.45h0Z" style="fill:#fff;"/><path d="M5246.82,1259.05c0-11.35,6.36-18.84,16.12-18.84s16.12,7.49,16.12,18.84-6.36,18.84-16.12,18.84-16.12-7.49-16.12-18.84Zm6.36,57.21h19.98v207.03h-19.98v-207.03Z" style="fill:#fff;"/><path d="M5407.09,1503.08v22.02h-10.22c-32.46,0-50.4-23.61-50.4-63.56v-123.72h-27.01v-21.57h27.01v-47.67h19.98v47.67h36.55v21.57h-36.55v123.72c0,27.24,9.53,41.32,30.42,41.32l10.22,.23h0Z" style="fill:#fff;"/><path d="M5568.27,1459.72c-2.72,43.36-24.06,67.42-60.39,67.42s-56.98-26.33-56.98-73.78v-68.1c0-47.22,23.38-73.78,58.12-73.78s59.02,26.33,59.02,73.78v45.86h-96.93v22.47c0,34.73,14.07,50.85,37.46,50.85,24.97,0,37.23-14.07,39.95-44.49l19.75-.23h0Zm-97.39-74.46v24.06h76.96v-24.06c0-34.73-14.53-50.85-38.82-50.85s-38.14,16.12-38.14,50.85h0Z" style="fill:#fff;"/><path d="M5736.72,1237.71v285.58h-16.12l-2.72-19.3c-9.53,15.44-24.74,24.06-41.77,24.06-32.01,0-54.94-26.79-54.94-79.23v-59.48c0-51.3,20.88-77.64,54.94-77.64,15.89,0,31.33,7.49,41.09,23.16v-96.93l19.52-.23h0Zm-19.52,211.8v-60.39c0-33.14-14.53-56.07-36.78-56.07-25.88,0-39.27,16.57-39.27,56.07v59.48c0,40.64,14.53,57.66,39.27,57.66,20.2,0,36.78-18.16,36.78-56.75h0Z" style="fill:#fff;"/><path d="M5898.8,1247.24h21.57l63.79,160.95c8.17,19.75,20.2,52.44,25.65,68.1l.91-.45c-.91-20.2-2.72-56.07-2.72-79.68v-148.92h20.88v276.05h-21.57l-64.47-162.09c-7.49-18.62-19.52-53.35-24.06-66.97l-.91,.45c.68,20.89,1.59,52.44,1.59,74.23v154.6h-20.88l.23-276.27h0Z" style="fill:#fff;"/><path d="M6202.09,1380.04v143.02h-17.25l-1.59-19.75c-9.08,14.98-22.7,24.52-40.86,24.52-32.46,0-56.07-23.16-56.07-63.56s22.02-61.97,60.84-61.97h35.19v-22.02c0-30.42-12.26-46.54-35.19-46.54-20.2,0-34.05,13.39-35.41,36.32h-19.98c1.36-35.41,23.38-58.8,56.07-58.8s54.26,26.56,54.26,68.78h0Zm-19.98,80.82v-36.55h-35.87c-25.88,0-39.95,14.07-39.95,40.64s15.89,40.18,38.82,40.18,37-16.57,37-44.27h0Z" style="fill:#fff;"/><path d="M6336.25,1503.08v22.02h-10.22c-32.46,0-50.4-23.61-50.4-63.56v-123.72h-27.01v-21.57h27.01v-47.67h19.98v47.67h36.55v21.57h-36.55v123.72c0,27.24,9.53,41.32,30.42,41.32l10.22,.23h0Z" style="fill:#fff;"/><path d="M6377.12,1259.05c0-11.35,6.36-18.84,16.12-18.84s16.12,7.49,16.12,18.84-6.36,18.84-16.12,18.84-16.12-7.49-16.12-18.84Zm6.36,57.21h19.98v207.03h-19.98v-207.03Z" style="fill:#fff;"/><path d="M6461.79,1452.91v-66.51c0-48.58,23.61-74.91,59.02-74.91s59.02,26.33,59.02,74.91v66.51c0,48.58-23.61,74.91-59.02,74.91s-59.02-26.33-59.02-74.91Zm97.84,0v-66.51c0-35.87-14.98-51.99-38.82-51.99s-38.82,16.12-38.82,51.99v66.51c0,35.87,14.98,51.99,38.82,51.99s38.82-15.89,38.82-51.99Z" style="fill:#fff;"/><path d="M6751.91,1390.71v132.58h-19.98v-128.94c0-41.77-9.53-60.84-32.69-60.84-24.74,0-40.86,24.06-40.86,64.24v125.31h-19.98v-207.03h16.57l3.41,25.65c9.08-18.62,24.29-30.42,45.86-30.42,28.6,.23,47.67,22.7,47.67,79.45h0Z" style="fill:#fff;"/><path d="M6800.72,1461.77h19.98c0,27.24,14.53,43.36,38.82,43.36,22.02,0,34.73-12.94,34.73-35.19,0-50.4-91.26-32.01-91.26-102.84,0-33.6,21.34-55.62,53.35-55.62s54.94,25.2,54.94,63.56h-19.98c0-25.65-12.71-41.09-35.19-41.09-20.88,0-33.14,12.71-33.14,33.82,0,48.58,91.26,29.97,91.26,102.84,0,34.28-22.02,57.21-54.94,57.21-34.73,0-58.34-26.33-58.57-66.06h0Z" style="fill:#fff;"/></g><g><path d="M2276.14,92.88v942.1h-46.76V427.27c0-72.87,2.04-137.57,4.09-200.68l-2.04-1.36c-15.21,52.44-35.64,118.5-55.84,184.56l-117.82,390.91h-46.76l-118.95-390.91c-19.3-66.06-39.73-132.12-54.94-184.56l-2.04,1.36c2.04,63.34,2.95,128.03,2.95,200.68v607.71h-45.86V92.88h48.81l144.38,463.56c15.21,49.94,34.51,122.59,47.67,168.44h2.04c12.26-45.86,31.55-118.5,47.67-168.44l144.38-463.56h49.03Z" style="fill:#fff;"/><path d="M3064.78,979.82v56.53h-329.39V92.88h322.13v56.53h-276.5v378.66h257.2v56.53h-257.2v394.77l283.77,.45h0Z" style="fill:#fff;"/><path d="M3483.39,92.88h155.5c127.13,0,200.22,95.8,200.22,269.46v397.5c0,175.25-75.14,276.27-200.22,276.27h-155.5V92.88Zm155.5,885.57c98.52,0,154.6-76.73,154.6-221.11V365.07c0-142.79-55.84-214.3-154.6-214.3h-109.65V978.23l109.65,.23h0Z" style="fill:#fff;"/><path d="M4279.3,92.88h45.63v943.23h-45.63V92.88Z" style="fill:#fff;"/><path d="M5268.16,92.88v942.1h-46.76V427.27c0-72.87,2.04-137.57,4.09-200.68l-2.04-1.36c-15.21,52.44-35.64,118.5-55.85,184.56l-117.82,390.91h-46.76l-118.95-390.91c-19.3-66.06-39.73-132.12-54.94-184.56l-2.04,1.36c2.04,63.34,2.95,128.03,2.95,200.68v607.71h-45.63V92.88h48.81l144.38,463.56c15.21,49.94,34.51,122.59,47.67,168.44h2.04c12.26-45.86,31.55-118.5,47.67-168.44l144.38-463.56h48.81Z" style="fill:#fff;"/><path d="M5715.38,772.1V92.88h46.76V772.1c0,146.88,55.85,218.39,139.16,218.39s139.16-71.51,139.16-218.39V92.88h46.76V772.1c0,180.47-75.14,276.27-185.92,276.27s-185.92-95.57-185.92-276.27h0Z" style="fill:#fff;"/><path d="M6534.66,92.88h47.67l226.56,642.9c19.3,54.03,45.63,134.85,59.93,180.47l2.04-1.36c-2.04-52.44-4.99-137.34-4.99-198.18V92.88h46.76v943.23h-47.67l-228.6-646.98c-17.25-51.3-44.72-134.85-56.98-176.62l-2.04,1.36c2.04,56.53,2.95,136.21,2.95,195.46v626.55h-45.63V92.88h0Z" style="fill:#fff;"/></g></g></svg>